<svg xmlns="http://www.w3.org/2000/svg" xmlns:xlink="http://www.w3.org/1999/xlink" xmlns:lucid="lucid" width="1760" height="1360"><g transform="translate(0 0)" lucid:page-tab-id="0_0"><path d="M0 0h1760v1360H0z" fill="#fff"/><path d="M300 338.17v881.33" fill="none"/><path d="M300 338.17v4.97m0 4.98v9.96m0 4.98v9.96m0 4.98v9.96m0 4.98v9.96m0 4.98v9.95m0 4.98v9.97m0 4.98v9.96m0 5v9.95m0 4.98v9.96m0 4.96v9.96m0 4.98v9.96m0 4.98v9.96m0 4.98v9.96m0 4.98v9.96m0 4.97v9.96m0 5v9.95m0 4.98v9.96m0 4.97v9.96m0 4.98v9.96m0 4.98v9.96m0 4.98v9.96m0 4.98v9.96m0 4.98v9.96m0 4.98v9.95m0 4.98v9.96m0 4.97v9.96m0 4.98v9.97m0 4.98v9.96m0 4.98v9.96m0 4.98v9.96m0 4.98v9.96m0 4.98v9.96m0 4.98v9.95m0 4.97v9.96m0 4.98v9.97m0 4.98v9.96m0 5v9.95m0 4.98v9.95m0 4.98v9.96m0 4.98v9.96m0 4.98v9.96m0 4.98v9.96m0 4.97v9.97m0 4.98v9.96m0 5v9.95m0 4.98v9.96m0 4.97v9.95m0 4.98v9.96m0 4.98v9.96m0 4.98v9.96m0 4.98v9.96m0 4.98v9.95m0 5v9.95m0 4.98v9.96m0 4.97v9.96m0 4.98v9.97m0 4.97v9.96m0 4.98v9.96m0 4.98v4.98" stroke="#666" fill="none"/><path d="M300.5 338.18h-1v-.5h1z" fill="#666"/><path d="M300 1219.5v.5" stroke="#666" fill="none"/><path d="M280 428c0-4.42 3.58-8 8-8h24c4.42 0 8 3.58 8 8v744c0 4.42-3.58 8-8 8h-24c-4.42 0-8-3.58-8-8z" stroke="#f2f2f2" fill="#d2d3d5"/><path d="M1412.54 338.17v881.33" fill="none"/><path d="M1412.54 338.17v4.97m0 4.98v9.96m0 4.98v9.96m0 4.98v9.96m0 4.98v9.96m0 4.98v9.95m0 4.98v9.97m0 4.98v9.96m0 5v9.95m0 4.98v9.96m0 4.96v9.96m0 4.98v9.96m0 4.98v9.96m0 4.98v9.96m0 4.98v9.96m0 4.97v9.96m0 5v9.95m0 4.98v9.96m0 4.97v9.96m0 4.98v9.96m0 4.98v9.96m0 4.98v9.96m0 4.98v9.96m0 4.98v9.96m0 4.98v9.95m0 4.98v9.96m0 4.97v9.96m0 4.98v9.97m0 4.98v9.96m0 4.98v9.96m0 4.98v9.96m0 4.98v9.96m0 4.98v9.96m0 4.98v9.95m0 4.97v9.96m0 4.98v9.97m0 4.98v9.96m0 5v9.95m0 4.98v9.95m0 4.98v9.96m0 4.98v9.96m0 4.98v9.96m0 4.98v9.96m0 4.97v9.97m0 4.98v9.96m0 5v9.95m0 4.98v9.96m0 4.97v9.95m0 4.98v9.96m0 4.98v9.96m0 4.98v9.96m0 4.98v9.96m0 4.98v9.95m0 5v9.95m0 4.98v9.96m0 4.97v9.96m0 4.98v9.97m0 4.97v9.96m0 4.98v9.96m0 4.98v4.98" stroke="#666" fill="none"/><path d="M1413.04 338.18h-1v-.5h1z" fill="#666"/><path d="M1412.54 1219.5v.5" stroke="#666" fill="none"/><path d="M580 25c0-2.76 2.24-5 5-5h541.63c2.77 0 5 2.24 5 5v87.13c0 2.76-2.23 5-5 5H585c-2.76 0-5-2.24-5-5z" stroke="#000" stroke-opacity="0" fill="#fff" fill-opacity="0"/><use xlink:href="#a" transform="matrix(1,0,0,1,580,20) translate(195.4074074074074 55.020833333333336)"/><use xlink:href="#b" transform="matrix(1,0,0,1,580,20) translate(296 55.020833333333336)"/><path d="M662.05 90.25h403.78M662.06 90.25h-.5M1065.82 90.25h.5" stroke="#b2b2b2" fill="none"/><path d="M140 168c0-4.42 3.58-8 8-8h304c4.42 0 8 3.58 8 8v161.67c0 4.4-3.58 8-8 8H148c-4.42 0-8-3.6-8-8z" stroke="#000" stroke-opacity="0" fill="#ef8d22"/><use xlink:href="#c" transform="matrix(1,0,0,1,148,168) translate(85.6640760532282 22.838907467627354)"/><use xlink:href="#d" transform="matrix(1,0,0,1,148,168) translate(19.962566202779357 57.097268669068384)"/><use xlink:href="#e" transform="matrix(1,0,0,1,148,168) translate(178.169581473323 57.097268669068384)"/><use xlink:href="#f" transform="matrix(1,0,0,1,148,168) translate(23.729399899697057 91.35562987050942)"/><use xlink:href="#g" transform="matrix(1,0,0,1,148,168) translate(31.65957610373433 91.35562987050942)"/><use xlink:href="#h" transform="matrix(1,0,0,1,148,168) translate(64.8870143986505 91.35562987050942)"/><use xlink:href="#i" transform="matrix(1,0,0,1,148,168) translate(88.67754301076235 91.35562987050942)"/><use xlink:href="#j" transform="matrix(1,0,0,1,148,168) translate(207.47158254724076 91.35562987050942)"/><use xlink:href="#k" transform="matrix(1,0,0,1,148,168) translate(109.33565202227946 125.61399107195045)"/><use xlink:href="#l" transform="matrix(1,0,0,1,148,168) translate(60.96157717765206 159.8723522733915)"/><use xlink:href="#m" transform="matrix(1,0,0,1,148,168) translate(171.74613874805283 159.8723522733915)"/><path d="M1302.96 188c0-4.42 3.58-8 8-8h203.16c4.42 0 8 3.58 8 8v141.67c0 4.4-3.58 8-8 8h-203.16c-4.42 0-8-3.6-8-8z" stroke="#000" stroke-opacity="0" fill="#ef8d22"/><use xlink:href="#n" transform="matrix(1,0,0,1,1310.9586203935946,187.99999999999994) translate(52.95186017802945 25.322185064745288)"/><use xlink:href="#o" transform="matrix(1,0,0,1,1310.9586203935946,187.99999999999994) translate(44.18901547256826 59.58054626618632)"/><use xlink:href="#p" transform="matrix(1,0,0,1,1310.9586203935946,187.99999999999994) translate(5.608708239926898 93.83890746762735)"/><use xlink:href="#q" transform="matrix(1,0,0,1,1310.9586203935946,187.99999999999994) translate(54.45859365679654 128.0972686690684)"/><path d="M1392.54 608c0-4.42 3.58-8 8-8h24c4.42 0 8 3.58 8 8v264c0 4.42-3.58 8-8 8h-24c-4.42 0-8-3.58-8-8z" stroke="#f2f2f2" fill="#d2d3d5"/><path d="M1408.75 648c0-4.42 3.6-8 8-8h24c4.42 0 8 3.58 8 8v44c0 4.42-3.58 8-8 8h-24c-4.4 0-8-3.58-8-8z" stroke="#ccc" fill="#fff"/><path d="M1481.24 654.37l3 1.24 2.6 2 2 2.6 1.24 3 .42 3.2v1.63l-.42 3.2-1.24 3-2 2.6-2.6 2-3 1.25-3.2.42h-12.4v-1h12.33l3-.4 2.77-1.14 2.4-1.83 1.82-2.4 1.14-2.75.4-3v-1.5l-.4-3.02-1.14-2.75-1.83-2.38-2.4-1.84-2.75-1.14-3-.4h-28.23v-1h28.28z" fill="#666"/><path d="M1449.77 654.94h-.52v-1h.52zM1465.14 684.64l-14.27-4.64 14.27-4.64z" fill="#666"/><path d="M1465.64 685.32l-16.4-5.32 16.4-5.32zM1452.5 680l12.14 3.95v-7.9z" fill="#666"/><use xlink:href="#r" transform="matrix(1,0,0,1,1449.2358356502873,597.033148650629) translate(0 20.935665178658407)"/><use xlink:href="#s" transform="matrix(1,0,0,1,1449.2358356502873,597.033148650629) translate(92.90201423029666 20.935665178658407)"/><use xlink:href="#t" transform="matrix(1,0,0,1,1449.2358356502873,597.033148650629) translate(200.26999155279134 20.935665178658407)"/><use xlink:href="#u" transform="matrix(1,0,0,1,1449.2358356502873,597.033148650629) translate(0 52.33916294664601)"/><use xlink:href="#v" transform="matrix(1,0,0,1,1449.2358356502873,597.033148650629) translate(7.269328187034168 52.33916294664601)"/><use xlink:href="#w" transform="matrix(1,0,0,1,1449.2358356502873,597.033148650629) translate(36.34664093517084 52.33916294664601)"/><use xlink:href="#x" transform="matrix(1,0,0,1,1489.9999999999998,657.8888888888888) translate(0 12.444444444444446)"/><path d="M304.36 740H1383.4" stroke="#999" stroke-width="5" fill="none"/><path d="M287.6 740l14.26-4.64v9.28zM1400.16 740l-14.26 4.64v-9.28z" stroke="#999" stroke-width="5" fill="#999"/><use xlink:href="#y" transform="matrix(1,0,0,1,507.5026830406572,704.5965022320128) translate(0 20.935665178658407)"/><use xlink:href="#z" transform="matrix(1,0,0,1,507.5026830406572,704.5965022320128) translate(65.35126040143717 20.935665178658407)"/><use xlink:href="#A" transform="matrix(1,0,0,1,507.5026830406572,704.5965022320128) translate(250.86451573454914 20.935665178658407)"/><use xlink:href="#B" transform="matrix(1,0,0,1,507.5026830406572,704.5965022320128) translate(329.0824870270368 20.935665178658407)"/><use xlink:href="#C" transform="matrix(1,0,0,1,507.5026830406572,704.5965022320128) translate(394.36105414660364 20.935665178658407)"/><use xlink:href="#D" transform="matrix(1,0,0,1,507.5026830406572,704.5965022320128) translate(427.7272705250905 20.935665178658407)"/><use xlink:href="#E" transform="matrix(1,0,0,1,507.5026830406572,704.5965022320128) translate(513.2523400990406 20.935665178658407)"/><path d="M1408.75 728c0-4.42 3.6-8 8-8h24c4.42 0 8 3.58 8 8v44c0 4.42-3.58 8-8 8h-24c-4.4 0-8-3.58-8-8z" stroke="#ccc" fill="#fff"/><path d="M1481.24 735.24l3 1.24 2.6 2 2 2.6 1.24 3 .42 3.2v12.32l-.42 3.2-1.24 3-2 2.6-2.6 2-3 1.25-3.2.42h-12.4v-1h12.33l3-.4 2.77-1.14 2.4-1.84 1.82-2.4 1.14-2.75.4-3.02v-12.18l-.4-3.02-1.14-2.75-1.83-2.4-2.4-1.83-2.75-1.14-3-.38h-28.23v-1h28.28z" fill="#666"/><path d="M1449.77 735.82h-.52v-1h.52zM1465.14 776.2l-14.27-4.63 14.27-4.64z" fill="#666"/><path d="M1465.64 776.9l-16.4-5.33 16.4-5.33zm-13.15-5.33l12.14 3.94v-7.88z" fill="#666"/><use xlink:href="#F" transform="matrix(1,0,0,1,1497.9999999999998,690.6336157874026) translate(0 20.935665178658407)"/><use xlink:href="#G" transform="matrix(1,0,0,1,1497.9999999999998,690.6336157874026) translate(85.6326860432625 20.935665178658407)"/><use xlink:href="#H" transform="matrix(1,0,0,1,1497.9999999999998,690.6336157874026) translate(0 52.33916294664601)"/><use xlink:href="#I" transform="matrix(1,0,0,1,1497.9999999999998,690.6336157874026) translate(0 83.74266071463363)"/><use xlink:href="#J" transform="matrix(1,0,0,1,1497.9999999999998,690.6336157874026) translate(0 115.14615848262125)"/><use xlink:href="#x" transform="matrix(1,0,0,1,1489.9999999999998,744.1072779900445) translate(0 12.444444444444446)"/><path d="M304.36 801.67H1367.2" stroke="#999" stroke-width="5" fill="none"/><path d="M287.6 801.67l14.26-4.64v9.27zM1383.95 801.67l-14.26 4.63v-9.27z" stroke="#999" stroke-width="5" fill="#999"/><use xlink:href="#y" transform="matrix(1,0,0,1,506.2584927078889,766.2631688986792) translate(0 20.935665178658407)"/><use xlink:href="#K" transform="matrix(1,0,0,1,506.2584927078889,766.2631688986792) translate(65.35126040143717 20.935665178658407)"/><use xlink:href="#L" transform="matrix(1,0,0,1,506.2584927078889,766.2631688986792) translate(236.39855264235118 20.935665178658407)"/><use xlink:href="#M" transform="matrix(1,0,0,1,506.2584927078889,766.2631688986792) translate(308.8737546670818 20.935665178658407)"/><use xlink:href="#C" transform="matrix(1,0,0,1,506.2584927078889,766.2631688986792) translate(382.8028223292193 20.935665178658407)"/><use xlink:href="#D" transform="matrix(1,0,0,1,506.2584927078889,766.2631688986792) translate(416.16903870770614 20.935665178658407)"/><use xlink:href="#E" transform="matrix(1,0,0,1,506.2584927078889,766.2631688986792) translate(501.6941082816562 20.935665178658407)"/><path d="M345.36 854.44h1044.18" stroke="#999" stroke-width="5" fill="none"/><path d="M328.6 854.44l14.26-4.63v9.28z" stroke="#999" stroke-width="5" fill="#999"/><path d="M1392.04 856.94h-2.56v-5h2.56z" fill="#999"/><g><use xlink:href="#N" transform="matrix(1,0,0,1,446.3861549789464,819.0409466764569) translate(0 20.935665178658407)"/><use xlink:href="#O" transform="matrix(1,0,0,1,446.3861549789464,819.0409466764569) translate(150.838559880959 20.935665178658407)"/><use xlink:href="#P" transform="matrix(1,0,0,1,446.3861549789464,819.0409466764569) translate(182.67821734016866 20.935665178658407)"/><use xlink:href="#Q" transform="matrix(1,0,0,1,446.3861549789464,819.0409466764569) translate(278.8514292546307 20.935665178658407)"/><use xlink:href="#R" transform="matrix(1,0,0,1,446.3861549789464,819.0409466764569) translate(442.1932336172885 20.935665178658407)"/><use xlink:href="#S" transform="matrix(1,0,0,1,446.3861549789464,819.0409466764569) translate(501.656338187228 20.935665178658407)"/><use xlink:href="#T" transform="matrix(1,0,0,1,446.3861549789464,819.0409466764569) translate(548.034652020506 20.935665178658407)"/><use xlink:href="#U" transform="matrix(1,0,0,1,446.3861549789464,819.0409466764569) translate(674.9571221661225 20.935665178658407)"/></g><path d="M300 928c0-4.42 3.58-8 8-8h24c4.42 0 8 3.58 8 8v44c0 4.42-3.58 8-8 8h-24c-4.42 0-8-3.58-8-8z" stroke="#ccc" fill="#fff"/><path d="M372.5 927.87l3 1.24 2.6 2 1.98 2.6 1.24 3 .43 3.22v24.52l-.43 3.2-1.24 3-2 2.6-2.6 2-3 1.24-3.2.42h-13.8v-1h13.73l3.03-.4 2.75-1.13 2.4-1.84 1.83-2.4 1.15-2.74.4-3.03v-24.4l-.4-3-1.14-2.76-1.83-2.38-2.4-1.83-2.74-1.15-3.02-.4H341v-1h28.28zM341 928.45h-.5v-.5l-.1-.5h.6z" fill="#666"/><path d="M355 981.04l-14.28-4.64 14.27-4.63z" fill="#666"/><path d="M355.5 981.73l-16.4-5.33 16.4-5.32zm-13.16-5.33l12.15 3.95v-7.9z" fill="#666"/><g><use xlink:href="#V" transform="matrix(1,0,0,1,389.24501253835075,890.0680352044211) translate(0 20.935665178658407)"/><use xlink:href="#W" transform="matrix(1,0,0,1,389.24501253835075,890.0680352044211) translate(78.43605113809868 20.935665178658407)"/><use xlink:href="#X" transform="matrix(1,0,0,1,389.24501253835075,890.0680352044211) translate(111.80226751658552 20.935665178658407)"/><use xlink:href="#Y" transform="matrix(1,0,0,1,389.24501253835075,890.0680352044211) translate(188.63906645353666 20.935665178658407)"/><use xlink:href="#Z" transform="matrix(1,0,0,1,389.24501253835075,890.0680352044211) translate(0 52.33916294664601)"/><use xlink:href="#aa" transform="matrix(1,0,0,1,389.24501253835075,890.0680352044211) translate(37.72781329070734 52.33916294664601)"/><use xlink:href="#ab" transform="matrix(1,0,0,1,389.24501253835075,890.0680352044211) translate(68.1862983943805 52.33916294664601)"/><use xlink:href="#ac" transform="matrix(1,0,0,1,389.24501253835075,890.0680352044211) translate(0 83.74266071463363)"/><use xlink:href="#ad" transform="matrix(1,0,0,1,389.24501253835075,890.0680352044211) translate(62.44352912662351 83.74266071463363)"/><use xlink:href="#ae" transform="matrix(1,0,0,1,389.24501253835075,890.0680352044211) translate(162.46948498021368 83.74266071463363)"/><use xlink:href="#af" transform="matrix(1,0,0,1,389.24501253835075,890.0680352044211) translate(239.30628391716482 83.74266071463363)"/><use xlink:href="#ag" transform="matrix(1,0,0,1,389.24501253835075,890.0680352044211) translate(272.6725002956517 83.74266071463363)"/><use xlink:href="#ah" transform="matrix(1,0,0,1,389.24501253835075,890.0680352044211) translate(349.5092992326028 83.74266071463363)"/><use xlink:href="#ai" transform="matrix(1,0,0,1,389.24501253835075,890.0680352044211) translate(0 115.14615848262125)"/><use xlink:href="#aj" transform="matrix(1,0,0,1,389.24501253835075,890.0680352044211) translate(71.09402966919417 115.14615848262125)"/><use xlink:href="#ag" transform="matrix(1,0,0,1,389.24501253835075,890.0680352044211) translate(165.59529610063834 115.14615848262125)"/><use xlink:href="#ak" transform="matrix(1,0,0,1,389.24501253835075,890.0680352044211) translate(242.43209503758948 115.14615848262125)"/><use xlink:href="#al" transform="matrix(1,0,0,1,389.24501253835075,890.0680352044211) translate(265.62125195422846 115.14615848262125)"/><use xlink:href="#am" transform="matrix(1,0,0,1,389.24501253835075,890.0680352044211) translate(288.81040887086743 115.14615848262125)"/><use xlink:href="#an" transform="matrix(1,0,0,1,389.24501253835075,890.0680352044211) translate(345.511168729734 115.14615848262125)"/></g><g><use xlink:href="#x" transform="matrix(1,0,0,1,381.2450125383508,943.541697407063) translate(0 12.444444444444446)"/></g><path d="M323 680.8l1060.4-4.58" stroke="#999" stroke-width="5" fill="none"/><path d="M323.07 683.3h-2.57v-5h2.55z" fill="#999"/><path d="M1400.16 676.15l-14.24 4.7-.04-9.28z" stroke="#999" stroke-width="5" fill="#999"/><g><use xlink:href="#ao" transform="matrix(1,0,0,1,418.6242810971463,580.4542840441412) translate(0 21.333333333333336)"/><use xlink:href="#O" transform="matrix(1,0,0,1,418.6242810971463,580.4542840441412) translate(110.20301531543798 21.333333333333336)"/><use xlink:href="#ap" transform="matrix(1,0,0,1,418.6242810971463,580.4542840441412) translate(142.04267277464766 21.333333333333336)"/><use xlink:href="#aq" transform="matrix(1,0,0,1,418.6242810971463,580.4542840441412) translate(320.70933944131434 21.333333333333336)"/><use xlink:href="#ar" transform="matrix(1,0,0,1,418.6242810971463,580.4542840441412) translate(375.376006107981 21.333333333333336)"/><use xlink:href="#as" transform="matrix(1,0,0,1,418.6242810971463,580.4542840441412) translate(0 52.93566517865841)"/><use xlink:href="#at" transform="matrix(1,0,0,1,418.6242810971463,580.4542840441412) translate(0 84.33916294664601)"/><use xlink:href="#au" transform="matrix(1,0,0,1,418.6242810971463,580.4542840441412) translate(14.538656374068337 84.33916294664601)"/></g><path d="M300 468c0-4.42 3.58-8 8-8h24c4.42 0 8 3.58 8 8v64c0 4.42-3.58 8-8 8h-24c-4.42 0-8-3.58-8-8z" stroke="#ccc" fill="#fff"/><path d="M391.87 467.87l3 1.24 2.6 2 2 2.6 1.23 3 .42 3.22v29.73l-.42 3.2-1.24 3-2 2.6-2.6 2-3 1.25-3.2.42h-31.78v-1h31.7l3.03-.4 2.76-1.14 2.4-1.83 1.83-2.4 1.13-2.75.4-3v-29.62l-.4-3-1.14-2.77-1.85-2.38-2.4-1.83-2.74-1.15-3-.4H341v-1h47.66zM341 468.45h-.5v-.5l-.1-.5h.6z" fill="#666"/><path d="M356.38 526.25l-14.26-4.63 14.26-4.64z" fill="#666"/><path d="M356.88 526.94l-16.38-5.32 16.38-5.32zm-13.14-5.32l12.14 3.95v-7.9z" fill="#666"/><g><use xlink:href="#F" transform="matrix(1,0,0,1,408.62250626917535,463.38121450164823) translate(0 20.935665178658407)"/><use xlink:href="#av" transform="matrix(1,0,0,1,408.62250626917535,463.38121450164823) translate(85.6326860432625 20.935665178658407)"/><use xlink:href="#aw" transform="matrix(1,0,0,1,408.62250626917535,463.38121450164823) translate(177.08083463615233 20.935665178658407)"/><use xlink:href="#ax" transform="matrix(1,0,0,1,408.62250626917535,463.38121450164823) translate(223.45914846943032 20.935665178658407)"/><use xlink:href="#ay" transform="matrix(1,0,0,1,408.62250626917535,463.38121450164823) translate(285.9026775960538 20.935665178658407)"/><use xlink:href="#az" transform="matrix(1,0,0,1,408.62250626917535,463.38121450164823) translate(314.97999034419047 20.935665178658407)"/><use xlink:href="#aA" transform="matrix(1,0,0,1,408.62250626917535,463.38121450164823) translate(0 52.33916294664601)"/><use xlink:href="#aB" transform="matrix(1,0,0,1,408.62250626917535,463.38121450164823) translate(78.36335785622833 52.33916294664601)"/><use xlink:href="#aC" transform="matrix(1,0,0,1,408.62250626917535,463.38121450164823) translate(263.87661318934033 52.33916294664601)"/></g><g><use xlink:href="#x" transform="matrix(1,0,0,1,400.62250626917535,485.45137893630255) translate(0 12.444444444444446)"/></g><path d="M242.25 732.25c0 6.77-5.48 12.25-12.25 12.25s-12.25-5.48-12.25-12.25S223.23 720 230 720s12.25 5.48 12.25 12.25z" stroke="#000" stroke-width="2" fill="#fff"/><path d="M200 725c0-2.76 2.24-5 5-5h50c2.76 0 5 2.24 5 5v88c0 2.76-2.24 5-5 5h-50c-2.76 0-5-2.24-5-5z" fill="none"/><path d="M230 744.5v29.3c0 2.76 1.36 6.78 3.04 8.97L260 818m-30-39.2L200 818m0-61.25h60" stroke="#000" stroke-width="2" fill="none"/><g><use xlink:href="#aD" transform="matrix(1,0,0,1,120,818) translate(91.05 14.6)"/></g><path d="M300 1088c0-4.42 3.58-8 8-8h24c4.42 0 8 3.58 8 8v44c0 4.42-3.58 8-8 8h-24c-4.42 0-8-3.58-8-8z" stroke="#ccc" fill="#fff"/><path d="M372.5 1092l3 1.23 2.6 2 1.98 2.6 1.24 3 .43 3.2v18.25l-.43 3.2-1.24 3-2 2.6-2.6 2-3 1.24-3.2.42h-32.4v-1h32.33l3.03-.4 2.75-1.13 2.4-1.83 1.83-2.4 1.15-2.74.4-3.02v-18.1l-.4-3-1.14-2.77-1.83-2.4-2.4-1.82-2.74-1.13-3.02-.4H321v-1h48.28zM321 1092.57h-.5v-1h.5z" fill="#666"/><path d="M336.38 1138.88l-14.26-4.64 14.26-4.63z" fill="#666"/><path d="M336.88 1139.57l-16.38-5.33 16.38-5.32zm-13.14-5.33l12.14 3.95v-7.9z" fill="#666"/><g><use xlink:href="#aE" transform="matrix(1,0,0,1,388.941409741469,1076.312432880471) translate(0 20.935665178658407)"/><use xlink:href="#aF" transform="matrix(1,0,0,1,388.941409741469,1076.312432880471) translate(111.72957423471517 20.935665178658407)"/><use xlink:href="#ax" transform="matrix(1,0,0,1,388.941409741469,1076.312432880471) translate(158.10788806799317 20.935665178658407)"/><use xlink:href="#aG" transform="matrix(1,0,0,1,388.941409741469,1076.312432880471) translate(220.55141719461668 20.935665178658407)"/><use xlink:href="#aH" transform="matrix(1,0,0,1,388.941409741469,1076.312432880471) translate(252.39107465382634 20.935665178658407)"/><use xlink:href="#aI" transform="matrix(1,0,0,1,388.941409741469,1076.312432880471) translate(429.2538294443676 20.935665178658407)"/></g><g><use xlink:href="#x" transform="matrix(1,0,0,1,381.2450125383508,1103.8246481970098) translate(0 12.444444444444446)"/></g><defs><path fill="#b2b2b2" d="M24 0v-248h52V0H24" id="aJ"/><path fill="#b2b2b2" d="M220-157c-53 9-28 100-34 157h-49v-107c1-27-5-49-29-50C55-147 81-57 75 0H25l-1-190h47c2 12-1 28 3 38 10-53 101-56 108 0 13-22 24-43 59-42 82 1 51 116 57 194h-49v-107c-1-25-5-48-29-50" id="aK"/><path fill="#b2b2b2" d="M135-194c53 0 70 44 70 98 0 56-19 98-73 100-31 1-45-17-59-34 3 33 2 69 2 105H25l-1-265h48c2 10 0 23 3 31 11-24 29-35 60-35zM114-30c33 0 39-31 40-66 0-38-9-64-40-64-56 0-55 130 0 130" id="aL"/><path fill="#b2b2b2" d="M25 0v-261h50V0H25" id="aM"/><path fill="#b2b2b2" d="M25-224v-37h50v37H25zM25 0v-190h50V0H25" id="aN"/><path fill="#b2b2b2" d="M190-63c-7 42-38 67-86 67-59 0-84-38-90-98-12-110 154-137 174-36l-49 2c-2-19-15-32-35-32-30 0-35 28-38 64-6 74 65 87 74 30" id="aO"/><path fill="#b2b2b2" d="M115-3C79 11 28 4 28-45v-112H4v-33h27l15-45h31v45h36v33H77v99c-1 23 16 31 38 25v30" id="aP"/><g id="a"><use transform="matrix(0.07407407407407408,0,0,0.07407407407407408,0,0)" xlink:href="#aJ"/><use transform="matrix(0.07407407407407408,0,0,0.07407407407407408,7.407407407407408,0)" xlink:href="#aK"/><use transform="matrix(0.07407407407407408,0,0,0.07407407407407408,31.111111111111114,0)" xlink:href="#aL"/><use transform="matrix(0.07407407407407408,0,0,0.07407407407407408,47.33333333333334,0)" xlink:href="#aM"/><use transform="matrix(0.07407407407407408,0,0,0.07407407407407408,54.74074074074075,0)" xlink:href="#aN"/><use transform="matrix(0.07407407407407408,0,0,0.07407407407407408,62.14814814814816,0)" xlink:href="#aO"/><use transform="matrix(0.07407407407407408,0,0,0.07407407407407408,76.96296296296296,0)" xlink:href="#aN"/><use transform="matrix(0.07407407407407408,0,0,0.07407407407407408,84.37037037037037,0)" xlink:href="#aP"/></g><path fill="#b2b2b2" d="M76-208v77h127v40H76V0H24v-248h183v40H76" id="aQ"/><path fill="#b2b2b2" d="M110-194c64 0 96 36 96 99 0 64-35 99-97 99-61 0-95-36-95-99 0-62 34-99 96-99zm-1 164c35 0 45-28 45-65 0-40-10-65-43-65-34 0-45 26-45 65 0 36 10 65 43 65" id="aR"/><path fill="#b2b2b2" d="M231 0h-52l-39-155L100 0H48L-1-190h46L77-45c9-52 24-97 36-145h53l37 145 32-145h46" id="aS"/><g id="b"><use transform="matrix(0.07407407407407408,0,0,0.07407407407407408,0,0)" xlink:href="#aQ"/><use transform="matrix(0.07407407407407408,0,0,0.07407407407407408,16.222222222222225,0)" xlink:href="#aM"/><use transform="matrix(0.07407407407407408,0,0,0.07407407407407408,23.629629629629633,0)" xlink:href="#aR"/><use transform="matrix(0.07407407407407408,0,0,0.07407407407407408,39.85185185185187,0)" xlink:href="#aS"/></g><path fill="#fff" d="M76-208v77h127v40H76V0H24v-248h183v40H76" id="aT"/><path fill="#fff" d="M135-150c-39-12-60 13-60 57V0H25l-1-190h47c2 13-1 29 3 40 6-28 27-53 61-41v41" id="aU"/><path fill="#fff" d="M110-194c64 0 96 36 96 99 0 64-35 99-97 99-61 0-95-36-95-99 0-62 34-99 96-99zm-1 164c35 0 45-28 45-65 0-40-10-65-43-65-34 0-45 26-45 65 0 36 10 65 43 65" id="aV"/><path fill="#fff" d="M135-194c87-1 58 113 63 194h-50c-7-57 23-157-34-157-59 0-34 97-39 157H25l-1-190h47c2 12-1 28 3 38 12-26 28-41 61-42" id="aW"/><path fill="#fff" d="M115-3C79 11 28 4 28-45v-112H4v-33h27l15-45h31v45h36v33H77v99c-1 23 16 31 38 25v30" id="aX"/><path fill="#fff" d="M14-72v-43h91v43H14" id="aY"/><path fill="#fff" d="M185-48c-13 30-37 53-82 52C43 2 14-33 14-96s30-98 90-98c62 0 83 45 84 108H66c0 31 8 55 39 56 18 0 30-7 34-22zm-45-69c5-46-57-63-70-21-2 6-4 13-4 21h74" id="aZ"/><path fill="#fff" d="M88-194c31-1 46 15 58 34l-1-101h50l1 261h-48c-2-10 0-23-3-31C134-8 116 4 84 4 32 4 16-41 15-95c0-56 19-97 73-99zm17 164c33 0 40-30 41-66 1-37-9-64-41-64s-38 30-39 65c0 43 13 65 39 65" id="ba"/><g id="c"><use transform="matrix(0.07930176204037276,0,0,0.07930176204037276,0,0)" xlink:href="#aT"/><use transform="matrix(0.07930176204037276,0,0,0.07930176204037276,17.367085886841632,0)" xlink:href="#aU"/><use transform="matrix(0.07930176204037276,0,0,0.07930176204037276,28.46933257249382,0)" xlink:href="#aV"/><use transform="matrix(0.07930176204037276,0,0,0.07930176204037276,45.83641845933545,0)" xlink:href="#aW"/><use transform="matrix(0.07930176204037276,0,0,0.07930176204037276,63.20350434617708,0)" xlink:href="#aX"/><use transform="matrix(0.07930176204037276,0,0,0.07930176204037276,72.64041402898144,0)" xlink:href="#aY"/><use transform="matrix(0.07930176204037276,0,0,0.07930176204037276,82.07732371178578,0)" xlink:href="#aZ"/><use transform="matrix(0.07930176204037276,0,0,0.07930176204037276,97.93767611986034,0)" xlink:href="#aW"/><use transform="matrix(0.07930176204037276,0,0,0.07930176204037276,115.30476200670198,0)" xlink:href="#ba"/></g><path fill="#fff" d="M133-34C117-15 103 5 69 4 32 3 11-16 11-54c-1-60 55-63 116-61 1-26-3-47-28-47-18 1-26 9-28 27l-52-2c7-38 36-58 82-57s74 22 75 68l1 82c-1 14 12 18 25 15v27c-30 8-71 5-69-32zm-48 3c29 0 43-24 42-57-32 0-66-3-65 30 0 17 8 27 23 27" id="bb"/><path fill="#fff" d="M135-194c53 0 70 44 70 98 0 56-19 98-73 100-31 1-45-17-59-34 3 33 2 69 2 105H25l-1-265h48c2 10 0 23 3 31 11-24 29-35 60-35zM114-30c33 0 39-31 40-66 0-38-9-64-40-64-56 0-55 130 0 130" id="bc"/><path fill="#fff" d="M25 0v-261h50V0H25" id="bd"/><path fill="#fff" d="M25-224v-37h50v37H25zM25 0v-190h50V0H25" id="be"/><path fill="#fff" d="M190-63c-7 42-38 67-86 67-59 0-84-38-90-98-12-110 154-137 174-36l-49 2c-2-19-15-32-35-32-30 0-35 28-38 64-6 74 65 87 74 30" id="bf"/><g id="d"><use transform="matrix(0.07930176204037276,0,0,0.07930176204037276,0,0)" xlink:href="#bb"/><use transform="matrix(0.07930176204037276,0,0,0.07930176204037276,15.86035240807455,0)" xlink:href="#bc"/><use transform="matrix(0.07930176204037276,0,0,0.07930176204037276,33.22743829491618,0)" xlink:href="#bc"/><use transform="matrix(0.07930176204037276,0,0,0.07930176204037276,50.59452418175782,0)" xlink:href="#bd"/><use transform="matrix(0.07930176204037276,0,0,0.07930176204037276,58.52470038579509,0)" xlink:href="#be"/><use transform="matrix(0.07930176204037276,0,0,0.07930176204037276,66.45487658983237,0)" xlink:href="#bf"/><use transform="matrix(0.07930176204037276,0,0,0.07930176204037276,82.3152289979069,0)" xlink:href="#bb"/><use transform="matrix(0.07930176204037276,0,0,0.07930176204037276,98.17558140598146,0)" xlink:href="#aX"/><use transform="matrix(0.07930176204037276,0,0,0.07930176204037276,107.61249108878582,0)" xlink:href="#be"/><use transform="matrix(0.07930176204037276,0,0,0.07930176204037276,115.5426672928231,0)" xlink:href="#aV"/><use transform="matrix(0.07930176204037276,0,0,0.07930176204037276,132.90975317966473,0)" xlink:href="#aW"/></g><path fill="#fff" d="M85 4C-2 5 27-109 22-190h50c7 57-23 150 33 157 60-5 35-97 40-157h50l1 190h-47c-2-12 1-28-3-38-12 25-28 42-61 42" id="bg"/><path fill="#fff" d="M195-6C206 82 75 100 31 46c-4-6-6-13-8-21l49-6c3 16 16 24 34 25 40 0 42-37 40-79-11 22-30 35-61 35-53 0-70-43-70-97 0-56 18-96 73-97 30 0 46 14 59 34l2-30h47zm-90-29c32 0 41-27 41-63 0-35-9-62-40-62-32 0-39 29-40 63 0 36 9 62 39 62" id="bh"/><g id="e"><use transform="matrix(0.07930176204037276,0,0,0.07930176204037276,0,0)" xlink:href="#aU"/><use transform="matrix(0.07930176204037276,0,0,0.07930176204037276,11.102246685652187,0)" xlink:href="#bg"/><use transform="matrix(0.07930176204037276,0,0,0.07930176204037276,28.46933257249382,0)" xlink:href="#aW"/><use transform="matrix(0.07930176204037276,0,0,0.07930176204037276,45.83641845933545,0)" xlink:href="#aW"/><use transform="matrix(0.07930176204037276,0,0,0.07930176204037276,63.20350434617708,0)" xlink:href="#be"/><use transform="matrix(0.07930176204037276,0,0,0.07930176204037276,71.13368055021436,0)" xlink:href="#aW"/><use transform="matrix(0.07930176204037276,0,0,0.07930176204037276,88.500766437056,0)" xlink:href="#bh"/></g><g id="g"><use transform="matrix(0.07930176204037276,0,0,0.07930176204037276,0,0)" xlink:href="#be"/><use transform="matrix(0.07930176204037276,0,0,0.07930176204037276,7.930176204037275,0)" xlink:href="#aW"/></g><use transform="matrix(0.07930176204037276,0,0,0.07930176204037276,0,0)" xlink:href="#bb" id="h"/><path fill="#fff" d="M135-194c52 0 70 43 70 98 0 56-19 99-73 100-30 1-46-15-58-35L72 0H24l1-261h50v104c11-23 29-37 60-37zM114-30c31 0 40-27 40-66 0-37-7-63-39-63s-41 28-41 65c0 36 8 64 40 64" id="bi"/><path fill="#fff" d="M231 0h-52l-39-155L100 0H48L-1-190h46L77-45c9-52 24-97 36-145h53l37 145 32-145h46" id="bj"/><path fill="#fff" d="M137-138c1-29-70-34-71-4 15 46 118 7 119 86 1 83-164 76-172 9l43-7c4 19 20 25 44 25 33 8 57-30 24-41C81-84 22-81 20-136c-2-80 154-74 161-7" id="bk"/><g id="i"><use transform="matrix(0.07930176204037276,0,0,0.07930176204037276,0,0)" xlink:href="#bi"/><use transform="matrix(0.07930176204037276,0,0,0.07930176204037276,17.367085886841632,0)" xlink:href="#aU"/><use transform="matrix(0.07930176204037276,0,0,0.07930176204037276,28.46933257249382,0)" xlink:href="#aV"/><use transform="matrix(0.07930176204037276,0,0,0.07930176204037276,45.83641845933545,0)" xlink:href="#bj"/><use transform="matrix(0.07930176204037276,0,0,0.07930176204037276,68.04091183063983,0)" xlink:href="#bk"/><use transform="matrix(0.07930176204037276,0,0,0.07930176204037276,83.90126423871438,0)" xlink:href="#aZ"/><use transform="matrix(0.07930176204037276,0,0,0.07930176204037276,99.76161664678894,0)" xlink:href="#aU"/></g><path fill="#fff" d="M67-93c0 74 22 123 53 168H70C40 30 18-18 18-93s22-123 52-168h50c-32 44-53 94-53 168" id="bl"/><path fill="#fff" d="M238-95c0 69-44 99-111 99C63 4 22-25 22-93v-155h51v151c-1 38 19 59 55 60 90 1 49-130 58-211h52v153" id="bm"/><g id="j"><use transform="matrix(0.07930176204037276,0,0,0.07930176204037276,0,0)" xlink:href="#bl"/><use transform="matrix(0.07930176204037276,0,0,0.07930176204037276,9.436909682804359,0)" xlink:href="#bm"/><use transform="matrix(0.07930176204037276,0,0,0.07930176204037276,29.976066051260904,0)" xlink:href="#bk"/><use transform="matrix(0.07930176204037276,0,0,0.07930176204037276,45.836418459335455,0)" xlink:href="#aZ"/><use transform="matrix(0.07930176204037276,0,0,0.07930176204037276,61.69677086741001,0)" xlink:href="#aU"/></g><path fill="#fff" d="M102-93c0 74-22 123-52 168H0C30 29 54-18 53-93c0-74-22-123-53-168h50c30 45 52 94 52 168" id="bn"/><g id="k"><use transform="matrix(0.07930176204037276,0,0,0.07930176204037276,0,0)" xlink:href="#bb"/><use transform="matrix(0.07930176204037276,0,0,0.07930176204037276,15.86035240807455,0)" xlink:href="#bh"/><use transform="matrix(0.07930176204037276,0,0,0.07930176204037276,33.22743829491618,0)" xlink:href="#aZ"/><use transform="matrix(0.07930176204037276,0,0,0.07930176204037276,49.08779070299073,0)" xlink:href="#aW"/><use transform="matrix(0.07930176204037276,0,0,0.07930176204037276,66.45487658983237,0)" xlink:href="#aX"/><use transform="matrix(0.07930176204037276,0,0,0.07930176204037276,75.89178627263672,0)" xlink:href="#bn"/></g><path fill="#fff" d="M240-174c0 40-23 61-54 70L253 0h-59l-57-94H76V0H24v-248c93 4 217-23 216 74zM76-134c48-2 112 12 112-38 0-48-66-32-112-35v73" id="bo"/><path fill="#fff" d="M123 10C108 53 80 86 19 72V37c35 8 53-11 59-39L3-190h52l48 148c12-52 28-100 44-148h51" id="bp"/><g id="l"><use transform="matrix(0.07930176204037276,0,0,0.07930176204037276,0,0)" xlink:href="#bo"/><use transform="matrix(0.07930176204037276,0,0,0.07930176204037276,20.539156368456545,0)" xlink:href="#aZ"/><use transform="matrix(0.07930176204037276,0,0,0.07930176204037276,36.39950877653109,0)" xlink:href="#bd"/><use transform="matrix(0.07930176204037276,0,0,0.07930176204037276,44.329684980568366,0)" xlink:href="#bp"/><use transform="matrix(0.07930176204037276,0,0,0.07930176204037276,60.19003738864292,0)" xlink:href="#be"/><use transform="matrix(0.07930176204037276,0,0,0.07930176204037276,68.1202135926802,0)" xlink:href="#aW"/><use transform="matrix(0.07930176204037276,0,0,0.07930176204037276,85.48729947952184,0)" xlink:href="#bh"/></g><path fill="#fff" d="M24-248c93 1 206-16 204 79-1 75-69 88-152 82V0H24v-248zm52 121c47 0 100 7 100-41 0-47-54-39-100-39v80" id="bq"/><g id="m"><use transform="matrix(0.07930176204037276,0,0,0.07930176204037276,0,0)" xlink:href="#bq"/><use transform="matrix(0.07930176204037276,0,0,0.07930176204037276,19.032422889689464,0)" xlink:href="#bb"/><use transform="matrix(0.07930176204037276,0,0,0.07930176204037276,34.89277529776402,0)" xlink:href="#aU"/><use transform="matrix(0.07930176204037276,0,0,0.07930176204037276,45.99502198341621,0)" xlink:href="#aX"/><use transform="matrix(0.07930176204037276,0,0,0.07930176204037276,55.43193166622057,0)" xlink:href="#bp"/></g><path fill="#fff" d="M140-251c80 0 125 45 125 126S219 4 139 4C58 4 15-44 15-125s44-126 125-126zm-1 214c52 0 73-35 73-88 0-50-21-86-72-86-52 0-73 35-73 86s22 88 72 88" id="br"/><path fill="#fff" d="M24 0v-248h52V0H24" id="bs"/><g id="n"><use transform="matrix(0.07930176204037276,0,0,0.07930176204037276,0,0)" xlink:href="#br"/><use transform="matrix(0.07930176204037276,0,0,0.07930176204037276,22.204493371304373,0)" xlink:href="#bc"/><use transform="matrix(0.07930176204037276,0,0,0.07930176204037276,39.571579258146,0)" xlink:href="#aZ"/><use transform="matrix(0.07930176204037276,0,0,0.07930176204037276,55.43193166622055,0)" xlink:href="#aW"/><use transform="matrix(0.07930176204037276,0,0,0.07930176204037276,72.79901755306219,0)" xlink:href="#bs"/><use transform="matrix(0.07930176204037276,0,0,0.07930176204037276,80.72919375709947,0)" xlink:href="#ba"/></g><path fill="#fff" d="M128 0H69L1-190h53L99-40l48-150h52" id="bt"/><g id="o"><use transform="matrix(0.07930176204037276,0,0,0.07930176204037276,0,0)" xlink:href="#bq"/><use transform="matrix(0.07930176204037276,0,0,0.07930176204037276,19.032422889689464,0)" xlink:href="#aU"/><use transform="matrix(0.07930176204037276,0,0,0.07930176204037276,30.134669575341647,0)" xlink:href="#aV"/><use transform="matrix(0.07930176204037276,0,0,0.07930176204037276,47.50175546218328,0)" xlink:href="#bt"/><use transform="matrix(0.07930176204037276,0,0,0.07930176204037276,63.36210787025784,0)" xlink:href="#be"/><use transform="matrix(0.07930176204037276,0,0,0.07930176204037276,71.29228407429511,0)" xlink:href="#ba"/><use transform="matrix(0.07930176204037276,0,0,0.07930176204037276,88.65936996113675,0)" xlink:href="#aZ"/><use transform="matrix(0.07930176204037276,0,0,0.07930176204037276,104.5197223692113,0)" xlink:href="#aU"/></g><path fill="#fff" d="M199 0l-22-63H83L61 0H9l90-248h61L250 0h-51zm-33-102l-36-108c-10 38-24 72-36 108h72" id="bu"/><path fill="#fff" d="M114-157C55-157 80-60 75 0H25v-261h50l-1 109c12-26 28-41 61-42 86-1 58 113 63 194h-50c-7-57 23-157-34-157" id="bv"/><path fill="#fff" d="M12 0v-35l95-120H19v-35h142v35L67-36h103V0H12" id="bw"/><g id="p"><use transform="matrix(0.07930176204037276,0,0,0.07930176204037276,0,0)" xlink:href="#bl"/><use transform="matrix(0.07930176204037276,0,0,0.07930176204037276,9.436909682804359,0)" xlink:href="#bu"/><use transform="matrix(0.07930176204037276,0,0,0.07930176204037276,29.976066051260904,0)" xlink:href="#bg"/><use transform="matrix(0.07930176204037276,0,0,0.07930176204037276,47.34315193810254,0)" xlink:href="#aX"/><use transform="matrix(0.07930176204037276,0,0,0.07930176204037276,56.78006162090689,0)" xlink:href="#bv"/><use transform="matrix(0.07930176204037276,0,0,0.07930176204037276,74.14714750774853,0)" xlink:href="#aV"/><use transform="matrix(0.07930176204037276,0,0,0.07930176204037276,91.51423339459016,0)" xlink:href="#aU"/><use transform="matrix(0.07930176204037276,0,0,0.07930176204037276,102.61648008024235,0)" xlink:href="#be"/><use transform="matrix(0.07930176204037276,0,0,0.07930176204037276,110.54665628427965,0)" xlink:href="#bw"/><use transform="matrix(0.07930176204037276,0,0,0.07930176204037276,124.82097345154673,0)" xlink:href="#bb"/><use transform="matrix(0.07930176204037276,0,0,0.07930176204037276,140.6813258596213,0)" xlink:href="#aX"/><use transform="matrix(0.07930176204037276,0,0,0.07930176204037276,150.11823554242565,0)" xlink:href="#be"/><use transform="matrix(0.07930176204037276,0,0,0.07930176204037276,158.04841174646293,0)" xlink:href="#aV"/><use transform="matrix(0.07930176204037276,0,0,0.07930176204037276,175.41549763330457,0)" xlink:href="#aW"/></g><g id="q"><use transform="matrix(0.07930176204037276,0,0,0.07930176204037276,0,0)" xlink:href="#bk"/><use transform="matrix(0.07930176204037276,0,0,0.07930176204037276,15.86035240807455,0)" xlink:href="#aZ"/><use transform="matrix(0.07930176204037276,0,0,0.07930176204037276,31.7207048161491,0)" xlink:href="#aU"/><use transform="matrix(0.07930176204037276,0,0,0.07930176204037276,42.82295150180128,0)" xlink:href="#bt"/><use transform="matrix(0.07930176204037276,0,0,0.07930176204037276,58.68330390987583,0)" xlink:href="#aZ"/><use transform="matrix(0.07930176204037276,0,0,0.07930176204037276,74.54365631795038,0)" xlink:href="#aU"/><use transform="matrix(0.07930176204037276,0,0,0.07930176204037276,85.64590300360256,0)" xlink:href="#bn"/></g><path fill="#666" d="M67-125c0 53 21 87 73 88 37 1 54-22 65-47l45 17C233-25 199 4 140 4 58 4 20-42 15-125 8-235 124-281 211-232c18 10 29 29 36 50l-46 12c-8-25-30-41-62-41-52 0-71 34-72 86" id="bx"/><path fill="#666" d="M114-157C55-157 80-60 75 0H25v-261h50l-1 109c12-26 28-41 61-42 86-1 58 113 63 194h-50c-7-57 23-157-34-157" id="by"/><path fill="#666" d="M185-48c-13 30-37 53-82 52C43 2 14-33 14-96s30-98 90-98c62 0 83 45 84 108H66c0 31 8 55 39 56 18 0 30-7 34-22zm-45-69c5-46-57-63-70-21-2 6-4 13-4 21h74" id="bz"/><path fill="#666" d="M190-63c-7 42-38 67-86 67-59 0-84-38-90-98-12-110 154-137 174-36l-49 2c-2-19-15-32-35-32-30 0-35 28-38 64-6 74 65 87 74 30" id="bA"/><path fill="#666" d="M147 0L96-86 75-71V0H25v-261h50v150l67-79h53l-66 74L201 0h-54" id="bB"/><g id="r"><use transform="matrix(0.07269328187034169,0,0,0.07269328187034169,0,0)" xlink:href="#bx"/><use transform="matrix(0.07269328187034169,0,0,0.07269328187034169,18.827560004418498,0)" xlink:href="#by"/><use transform="matrix(0.07269328187034169,0,0,0.07269328187034169,34.747388734023325,0)" xlink:href="#bz"/><use transform="matrix(0.07269328187034169,0,0,0.07269328187034169,49.28604510809166,0)" xlink:href="#bA"/><use transform="matrix(0.07269328187034169,0,0,0.07269328187034169,63.82470148216,0)" xlink:href="#bB"/></g><path fill="#666" d="M231 0h-52l-39-155L100 0H48L-1-190h46L77-45c9-52 24-97 36-145h53l37 145 32-145h46" id="bC"/><path fill="#666" d="M115-3C79 11 28 4 28-45v-112H4v-33h27l15-45h31v45h36v33H77v99c-1 23 16 31 38 25v30" id="bD"/><path fill="#666" d="M135-150c-39-12-60 13-60 57V0H25l-1-190h47c2 13-1 29 3 40 6-28 27-53 61-41v41" id="bE"/><g id="s"><use transform="matrix(0.07269328187034169,0,0,0.07269328187034169,0,0)" xlink:href="#bC"/><use transform="matrix(0.07269328187034169,0,0,0.07269328187034169,20.354118923695673,0)" xlink:href="#by"/><use transform="matrix(0.07269328187034169,0,0,0.07269328187034169,36.2739476533005,0)" xlink:href="#bz"/><use transform="matrix(0.07269328187034169,0,0,0.07269328187034169,50.81260402736884,0)" xlink:href="#bD"/><use transform="matrix(0.07269328187034169,0,0,0.07269328187034169,59.463104569939496,0)" xlink:href="#by"/><use transform="matrix(0.07269328187034169,0,0,0.07269328187034169,75.38293329954433,0)" xlink:href="#bz"/><use transform="matrix(0.07269328187034169,0,0,0.07269328187034169,89.92158967361267,0)" xlink:href="#bE"/></g><path fill="#666" d="M85 4C-2 5 27-109 22-190h50c7 57-23 150 33 157 60-5 35-97 40-157h50l1 190h-47c-2-12 1-28-3-38-12 25-28 42-61 42" id="bF"/><path fill="#666" d="M137-138c1-29-70-34-71-4 15 46 118 7 119 86 1 83-164 76-172 9l43-7c4 19 20 25 44 25 33 8 57-30 24-41C81-84 22-81 20-136c-2-80 154-74 161-7" id="bG"/><g id="t"><use transform="matrix(0.07269328187034169,0,0,0.07269328187034169,0,0)" xlink:href="#bF"/><use transform="matrix(0.07269328187034169,0,0,0.07269328187034169,15.919828729604829,0)" xlink:href="#bG"/><use transform="matrix(0.07269328187034169,0,0,0.07269328187034169,30.458485103673166,0)" xlink:href="#bz"/><use transform="matrix(0.07269328187034169,0,0,0.07269328187034169,44.9971414777415,0)" xlink:href="#bE"/></g><path fill="#666" d="M25-224v-37h50v37H25zM25 0v-190h50V0H25" id="bH"/><g id="v"><use transform="matrix(0.07269328187034169,0,0,0.07269328187034169,0,0)" xlink:href="#bH"/><use transform="matrix(0.07269328187034169,0,0,0.07269328187034169,7.269328187034168,0)" xlink:href="#bG"/></g><path fill="#666" d="M133-34C117-15 103 5 69 4 32 3 11-16 11-54c-1-60 55-63 116-61 1-26-3-47-28-47-18 1-26 9-28 27l-52-2c7-38 36-58 82-57s74 22 75 68l1 82c-1 14 12 18 25 15v27c-30 8-71 5-69-32zm-48 3c29 0 43-24 42-57-32 0-66-3-65 30 0 17 8 27 23 27" id="bI"/><path fill="#666" d="M135-194c87-1 58 113 63 194h-50c-7-57 23-157-34-157-59 0-34 97-39 157H25l-1-190h47c2 12-1 28 3 38 12-26 28-41 61-42" id="bJ"/><path fill="#666" d="M88-194c31-1 46 15 58 34l-1-101h50l1 261h-48c-2-10 0-23-3-31C134-8 116 4 84 4 32 4 16-41 15-95c0-56 19-97 73-99zm17 164c33 0 40-30 41-66 1-37-9-64-41-64s-38 30-39 65c0 43 13 65 39 65" id="bK"/><g id="w"><use transform="matrix(0.07269328187034169,0,0,0.07269328187034169,0,0)" xlink:href="#bI"/><use transform="matrix(0.07269328187034169,0,0,0.07269328187034169,14.538656374068337,0)" xlink:href="#bF"/><use transform="matrix(0.07269328187034169,0,0,0.07269328187034169,30.458485103673166,0)" xlink:href="#bD"/><use transform="matrix(0.07269328187034169,0,0,0.07269328187034169,39.10898564624383,0)" xlink:href="#by"/><use transform="matrix(0.07269328187034169,0,0,0.07269328187034169,55.028814375848654,0)" xlink:href="#bz"/><use transform="matrix(0.07269328187034169,0,0,0.07269328187034169,69.56747074991699,0)" xlink:href="#bJ"/><use transform="matrix(0.07269328187034169,0,0,0.07269328187034169,85.48729947952182,0)" xlink:href="#bD"/><use transform="matrix(0.07269328187034169,0,0,0.07269328187034169,94.13780002209248,0)" xlink:href="#bH"/><use transform="matrix(0.07269328187034169,0,0,0.07269328187034169,101.40712820912664,0)" xlink:href="#bA"/><use transform="matrix(0.07269328187034169,0,0,0.07269328187034169,115.94578458319498,0)" xlink:href="#bI"/><use transform="matrix(0.07269328187034169,0,0,0.07269328187034169,130.4844409572633,0)" xlink:href="#bD"/><use transform="matrix(0.07269328187034169,0,0,0.07269328187034169,139.13494149983396,0)" xlink:href="#bz"/><use transform="matrix(0.07269328187034169,0,0,0.07269328187034169,153.67359787390228,0)" xlink:href="#bK"/></g><path fill="#666" d="M238-95c0 69-44 99-111 99C63 4 22-25 22-93v-155h51v151c-1 38 19 59 55 60 90 1 49-130 58-211h52v153" id="bL"/><g id="y"><use transform="matrix(0.07269328187034169,0,0,0.07269328187034169,0,0)" xlink:href="#bL"/><use transform="matrix(0.07269328187034169,0,0,0.07269328187034169,18.827560004418498,0)" xlink:href="#bG"/><use transform="matrix(0.07269328187034169,0,0,0.07269328187034169,33.36621637848683,0)" xlink:href="#bz"/><use transform="matrix(0.07269328187034169,0,0,0.07269328187034169,47.90487275255517,0)" xlink:href="#bE"/></g><path fill="#666" d="M110-194c64 0 96 36 96 99 0 64-35 99-97 99-61 0-95-36-95-99 0-62 34-99 96-99zm-1 164c35 0 45-28 45-65 0-40-10-65-43-65-34 0-45 26-45 65 0 36 10 65 43 65" id="bM"/><g id="z"><use transform="matrix(0.07269328187034169,0,0,0.07269328187034169,0,0)" xlink:href="#bI"/><use transform="matrix(0.07269328187034169,0,0,0.07269328187034169,14.538656374068337,0)" xlink:href="#bF"/><use transform="matrix(0.07269328187034169,0,0,0.07269328187034169,30.458485103673166,0)" xlink:href="#bD"/><use transform="matrix(0.07269328187034169,0,0,0.07269328187034169,39.10898564624383,0)" xlink:href="#by"/><use transform="matrix(0.07269328187034169,0,0,0.07269328187034169,55.028814375848654,0)" xlink:href="#bz"/><use transform="matrix(0.07269328187034169,0,0,0.07269328187034169,69.56747074991699,0)" xlink:href="#bJ"/><use transform="matrix(0.07269328187034169,0,0,0.07269328187034169,85.48729947952182,0)" xlink:href="#bD"/><use transform="matrix(0.07269328187034169,0,0,0.07269328187034169,94.13780002209248,0)" xlink:href="#bH"/><use transform="matrix(0.07269328187034169,0,0,0.07269328187034169,101.40712820912664,0)" xlink:href="#bA"/><use transform="matrix(0.07269328187034169,0,0,0.07269328187034169,115.94578458319498,0)" xlink:href="#bI"/><use transform="matrix(0.07269328187034169,0,0,0.07269328187034169,130.4844409572633,0)" xlink:href="#bD"/><use transform="matrix(0.07269328187034169,0,0,0.07269328187034169,139.13494149983396,0)" xlink:href="#bH"/><use transform="matrix(0.07269328187034169,0,0,0.07269328187034169,146.40426968686813,0)" xlink:href="#bM"/><use transform="matrix(0.07269328187034169,0,0,0.07269328187034169,162.32409841647296,0)" xlink:href="#bJ"/></g><path fill="#666" d="M67-93c0 74 22 123 53 168H70C40 30 18-18 18-93s22-123 52-168h50c-32 44-53 94-53 168" id="bN"/><path fill="#666" d="M25 0v-261h50V0H25" id="bO"/><path fill="#666" d="M195-6C206 82 75 100 31 46c-4-6-6-13-8-21l49-6c3 16 16 24 34 25 40 0 42-37 40-79-11 22-30 35-61 35-53 0-70-43-70-97 0-56 18-96 73-97 30 0 46 14 59 34l2-30h47zm-90-29c32 0 41-27 41-63 0-35-9-62-40-62-32 0-39 29-40 63 0 36 9 62 39 62" id="bP"/><g id="A"><use transform="matrix(0.07269328187034169,0,0,0.07269328187034169,0,0)" xlink:href="#bN"/><use transform="matrix(0.07269328187034169,0,0,0.07269328187034169,8.650500542570661,0)" xlink:href="#bO"/><use transform="matrix(0.07269328187034169,0,0,0.07269328187034169,15.91982872960483,0)" xlink:href="#bM"/><use transform="matrix(0.07269328187034169,0,0,0.07269328187034169,31.83965745920966,0)" xlink:href="#bP"/><use transform="matrix(0.07269328187034169,0,0,0.07269328187034169,47.7594861888145,0)" xlink:href="#bH"/><use transform="matrix(0.07269328187034169,0,0,0.07269328187034169,55.02881437584866,0)" xlink:href="#bJ"/></g><path fill="#666" d="M121-226c-27-7-43 5-38 36h38v33H83V0H34v-157H6v-33h28c-9-59 32-81 87-68v32" id="bQ"/><path fill="#666" d="M220-157c-53 9-28 100-34 157h-49v-107c1-27-5-49-29-50C55-147 81-57 75 0H25l-1-190h47c2 12-1 28 3 38 10-53 101-56 108 0 13-22 24-43 59-42 82 1 51 116 57 194h-49v-107c-1-25-5-48-29-50" id="bR"/><g id="B"><use transform="matrix(0.07269328187034169,0,0,0.07269328187034169,0,0)" xlink:href="#bQ"/><use transform="matrix(0.07269328187034169,0,0,0.07269328187034169,8.650500542570661,0)" xlink:href="#bM"/><use transform="matrix(0.07269328187034169,0,0,0.07269328187034169,24.570329272175496,0)" xlink:href="#bE"/><use transform="matrix(0.07269328187034169,0,0,0.07269328187034169,34.74738873402333,0)" xlink:href="#bR"/></g><g id="C"><use transform="matrix(0.07269328187034169,0,0,0.07269328187034169,0,0)" xlink:href="#bM"/><use transform="matrix(0.07269328187034169,0,0,0.07269328187034169,15.919828729604829,0)" xlink:href="#bE"/></g><path fill="#666" d="M135-194c53 0 70 44 70 98 0 56-19 98-73 100-31 1-45-17-59-34 3 33 2 69 2 105H25l-1-265h48c2 10 0 23 3 31 11-24 29-35 60-35zM114-30c33 0 39-31 40-66 0-38-9-64-40-64-56 0-55 130 0 130" id="bS"/><g id="D"><use transform="matrix(0.07269328187034169,0,0,0.07269328187034169,0,0)" xlink:href="#bS"/><use transform="matrix(0.07269328187034169,0,0,0.07269328187034169,15.919828729604829,0)" xlink:href="#bM"/><use transform="matrix(0.07269328187034169,0,0,0.07269328187034169,31.839657459209658,0)" xlink:href="#bS"/><use transform="matrix(0.07269328187034169,0,0,0.07269328187034169,47.759486188814485,0)" xlink:href="#bF"/><use transform="matrix(0.07269328187034169,0,0,0.07269328187034169,63.679314918419315,0)" xlink:href="#bS"/></g><path fill="#666" d="M102-93c0 74-22 123-52 168H0C30 29 54-18 53-93c0-74-22-123-53-168h50c30 45 52 94 52 168" id="bT"/><use transform="matrix(0.07269328187034169,0,0,0.07269328187034169,0,0)" xlink:href="#bT" id="E"/><g id="F"><use transform="matrix(0.07269328187034169,0,0,0.07269328187034169,0,0)" xlink:href="#bx"/><use transform="matrix(0.07269328187034169,0,0,0.07269328187034169,18.827560004418498,0)" xlink:href="#by"/><use transform="matrix(0.07269328187034169,0,0,0.07269328187034169,34.747388734023325,0)" xlink:href="#bz"/><use transform="matrix(0.07269328187034169,0,0,0.07269328187034169,49.28604510809166,0)" xlink:href="#bA"/><use transform="matrix(0.07269328187034169,0,0,0.07269328187034169,63.82470148216,0)" xlink:href="#bB"/></g><g id="G"><use transform="matrix(0.07269328187034169,0,0,0.07269328187034169,0,0)" xlink:href="#bF"/><use transform="matrix(0.07269328187034169,0,0,0.07269328187034169,15.919828729604829,0)" xlink:href="#bG"/><use transform="matrix(0.07269328187034169,0,0,0.07269328187034169,30.458485103673166,0)" xlink:href="#bz"/><use transform="matrix(0.07269328187034169,0,0,0.07269328187034169,44.9971414777415,0)" xlink:href="#bE"/></g><path fill="#666" d="M76-54c-1 42 2 86-19 110H24C36 42 46 24 48 0H25v-54h51" id="bU"/><g id="H"><use transform="matrix(0.07269328187034169,0,0,0.07269328187034169,0,0)" xlink:href="#bA"/><use transform="matrix(0.07269328187034169,0,0,0.07269328187034169,14.538656374068337,0)" xlink:href="#bE"/><use transform="matrix(0.07269328187034169,0,0,0.07269328187034169,24.715715835916175,0)" xlink:href="#bz"/><use transform="matrix(0.07269328187034169,0,0,0.07269328187034169,39.25437220998451,0)" xlink:href="#bK"/><use transform="matrix(0.07269328187034169,0,0,0.07269328187034169,55.17420093958934,0)" xlink:href="#bz"/><use transform="matrix(0.07269328187034169,0,0,0.07269328187034169,69.71285731365768,0)" xlink:href="#bJ"/><use transform="matrix(0.07269328187034169,0,0,0.07269328187034169,85.63268604326251,0)" xlink:href="#bD"/><use transform="matrix(0.07269328187034169,0,0,0.07269328187034169,94.28318658583316,0)" xlink:href="#bH"/><use transform="matrix(0.07269328187034169,0,0,0.07269328187034169,101.55251477286731,0)" xlink:href="#bI"/><use transform="matrix(0.07269328187034169,0,0,0.07269328187034169,116.09117114693568,0)" xlink:href="#bO"/><use transform="matrix(0.07269328187034169,0,0,0.07269328187034169,123.36049933396983,0)" xlink:href="#bG"/><use transform="matrix(0.07269328187034169,0,0,0.07269328187034169,137.89915570803817,0)" xlink:href="#bU"/></g><g id="I"><use transform="matrix(0.07269328187034169,0,0,0.07269328187034169,0,0)" xlink:href="#bG"/><use transform="matrix(0.07269328187034169,0,0,0.07269328187034169,14.538656374068337,0)" xlink:href="#bz"/><use transform="matrix(0.07269328187034169,0,0,0.07269328187034169,29.077312748136674,0)" xlink:href="#bG"/><use transform="matrix(0.07269328187034169,0,0,0.07269328187034169,43.61596912220501,0)" xlink:href="#bG"/><use transform="matrix(0.07269328187034169,0,0,0.07269328187034169,58.15462549627335,0)" xlink:href="#bH"/><use transform="matrix(0.07269328187034169,0,0,0.07269328187034169,65.42395368330752,0)" xlink:href="#bM"/><use transform="matrix(0.07269328187034169,0,0,0.07269328187034169,81.34378241291235,0)" xlink:href="#bJ"/></g><g id="J"><use transform="matrix(0.07269328187034169,0,0,0.07269328187034169,0,0)" xlink:href="#bA"/><use transform="matrix(0.07269328187034169,0,0,0.07269328187034169,14.538656374068337,0)" xlink:href="#bE"/><use transform="matrix(0.07269328187034169,0,0,0.07269328187034169,24.715715835916175,0)" xlink:href="#bz"/><use transform="matrix(0.07269328187034169,0,0,0.07269328187034169,39.25437220998451,0)" xlink:href="#bI"/><use transform="matrix(0.07269328187034169,0,0,0.07269328187034169,53.79302858405285,0)" xlink:href="#bD"/><use transform="matrix(0.07269328187034169,0,0,0.07269328187034169,62.44352912662351,0)" xlink:href="#bH"/><use transform="matrix(0.07269328187034169,0,0,0.07269328187034169,69.71285731365768,0)" xlink:href="#bM"/><use transform="matrix(0.07269328187034169,0,0,0.07269328187034169,85.63268604326251,0)" xlink:href="#bJ"/></g><path fill="#666" d="M12 0v-35l95-120H19v-35h142v35L67-36h103V0H12" id="bV"/><g id="K"><use transform="matrix(0.07269328187034169,0,0,0.07269328187034169,0,0)" xlink:href="#bI"/><use transform="matrix(0.07269328187034169,0,0,0.07269328187034169,14.538656374068337,0)" xlink:href="#bF"/><use transform="matrix(0.07269328187034169,0,0,0.07269328187034169,30.458485103673166,0)" xlink:href="#bD"/><use transform="matrix(0.07269328187034169,0,0,0.07269328187034169,39.10898564624383,0)" xlink:href="#by"/><use transform="matrix(0.07269328187034169,0,0,0.07269328187034169,55.028814375848654,0)" xlink:href="#bM"/><use transform="matrix(0.07269328187034169,0,0,0.07269328187034169,70.94864310545348,0)" xlink:href="#bE"/><use transform="matrix(0.07269328187034169,0,0,0.07269328187034169,81.12570256730132,0)" xlink:href="#bH"/><use transform="matrix(0.07269328187034169,0,0,0.07269328187034169,88.39503075433548,0)" xlink:href="#bV"/><use transform="matrix(0.07269328187034169,0,0,0.07269328187034169,101.47982149099698,0)" xlink:href="#bI"/><use transform="matrix(0.07269328187034169,0,0,0.07269328187034169,116.01847786506532,0)" xlink:href="#bD"/><use transform="matrix(0.07269328187034169,0,0,0.07269328187034169,124.66897840763599,0)" xlink:href="#bH"/><use transform="matrix(0.07269328187034169,0,0,0.07269328187034169,131.93830659467017,0)" xlink:href="#bM"/><use transform="matrix(0.07269328187034169,0,0,0.07269328187034169,147.858135324275,0)" xlink:href="#bJ"/></g><g id="L"><use transform="matrix(0.07269328187034169,0,0,0.07269328187034169,0,0)" xlink:href="#bP"/><use transform="matrix(0.07269328187034169,0,0,0.07269328187034169,15.919828729604829,0)" xlink:href="#bE"/><use transform="matrix(0.07269328187034169,0,0,0.07269328187034169,26.096888191452667,0)" xlink:href="#bI"/><use transform="matrix(0.07269328187034169,0,0,0.07269328187034169,40.635544565521,0)" xlink:href="#bJ"/><use transform="matrix(0.07269328187034169,0,0,0.07269328187034169,56.55537329512583,0)" xlink:href="#bD"/></g><g id="M"><use transform="matrix(0.07269328187034169,0,0,0.07269328187034169,0,0)" xlink:href="#bN"/><use transform="matrix(0.07269328187034169,0,0,0.07269328187034169,8.650500542570661,0)" xlink:href="#bQ"/><use transform="matrix(0.07269328187034169,0,0,0.07269328187034169,17.301001085141323,0)" xlink:href="#bM"/><use transform="matrix(0.07269328187034169,0,0,0.07269328187034169,33.22082981474615,0)" xlink:href="#bE"/><use transform="matrix(0.07269328187034169,0,0,0.07269328187034169,43.397889276593986,0)" xlink:href="#bR"/></g><path fill="#666" d="M240-174c0 40-23 61-54 70L253 0h-59l-57-94H76V0H24v-248c93 4 217-23 216 74zM76-134c48-2 112 12 112-38 0-48-66-32-112-35v73" id="bW"/><g id="N"><use transform="matrix(0.07269328187034169,0,0,0.07269328187034169,0,0)" xlink:href="#bW"/><use transform="matrix(0.07269328187034169,0,0,0.07269328187034169,18.827560004418498,0)" xlink:href="#bz"/><use transform="matrix(0.07269328187034169,0,0,0.07269328187034169,33.36621637848683,0)" xlink:href="#bK"/><use transform="matrix(0.07269328187034169,0,0,0.07269328187034169,49.28604510809166,0)" xlink:href="#bH"/><use transform="matrix(0.07269328187034169,0,0,0.07269328187034169,56.55537329512583,0)" xlink:href="#bE"/><use transform="matrix(0.07269328187034169,0,0,0.07269328187034169,66.73243275697367,0)" xlink:href="#bz"/><use transform="matrix(0.07269328187034169,0,0,0.07269328187034169,81.271089131042,0)" xlink:href="#bA"/><use transform="matrix(0.07269328187034169,0,0,0.07269328187034169,95.80974550511034,0)" xlink:href="#bD"/><use transform="matrix(0.07269328187034169,0,0,0.07269328187034169,104.460246047681,0)" xlink:href="#bH"/><use transform="matrix(0.07269328187034169,0,0,0.07269328187034169,111.72957423471517,0)" xlink:href="#bM"/><use transform="matrix(0.07269328187034169,0,0,0.07269328187034169,127.64940296432,0)" xlink:href="#bJ"/></g><g id="O"><use transform="matrix(0.07269328187034169,0,0,0.07269328187034169,0,0)" xlink:href="#bD"/><use transform="matrix(0.07269328187034169,0,0,0.07269328187034169,8.650500542570661,0)" xlink:href="#bM"/></g><path fill="#666" d="M62-158H24l-5-90h48" id="bX"/><g id="P"><use transform="matrix(0.07269328187034169,0,0,0.07269328187034169,0,0)" xlink:href="#bA"/><use transform="matrix(0.07269328187034169,0,0,0.07269328187034169,14.538656374068337,0)" xlink:href="#bO"/><use transform="matrix(0.07269328187034169,0,0,0.07269328187034169,21.807984561102504,0)" xlink:href="#bH"/><use transform="matrix(0.07269328187034169,0,0,0.07269328187034169,29.077312748136674,0)" xlink:href="#bz"/><use transform="matrix(0.07269328187034169,0,0,0.07269328187034169,43.61596912220501,0)" xlink:href="#bJ"/><use transform="matrix(0.07269328187034169,0,0,0.07269328187034169,59.53579785180984,0)" xlink:href="#bD"/><use transform="matrix(0.07269328187034169,0,0,0.07269328187034169,68.1862983943805,0)" xlink:href="#bX"/><use transform="matrix(0.07269328187034169,0,0,0.07269328187034169,74.36522735335954,0)" xlink:href="#bG"/></g><path fill="#666" d="M-4 44V30h207v14H-4" id="bY"/><g id="Q"><use transform="matrix(0.07269328187034169,0,0,0.07269328187034169,0,0)" xlink:href="#bX"/><use transform="matrix(0.07269328187034169,0,0,0.07269328187034169,6.178928958979044,0)" xlink:href="#bE"/><use transform="matrix(0.07269328187034169,0,0,0.07269328187034169,16.35598842082688,0)" xlink:href="#bz"/><use transform="matrix(0.07269328187034169,0,0,0.07269328187034169,30.894644794895214,0)" xlink:href="#bK"/><use transform="matrix(0.07269328187034169,0,0,0.07269328187034169,46.814473524500045,0)" xlink:href="#bH"/><use transform="matrix(0.07269328187034169,0,0,0.07269328187034169,54.083801711534214,0)" xlink:href="#bE"/><use transform="matrix(0.07269328187034169,0,0,0.07269328187034169,64.26086117338205,0)" xlink:href="#bz"/><use transform="matrix(0.07269328187034169,0,0,0.07269328187034169,78.79951754745039,0)" xlink:href="#bA"/><use transform="matrix(0.07269328187034169,0,0,0.07269328187034169,93.33817392151873,0)" xlink:href="#bD"/><use transform="matrix(0.07269328187034169,0,0,0.07269328187034169,101.9886744640894,0)" xlink:href="#bY"/><use transform="matrix(0.07269328187034169,0,0,0.07269328187034169,116.52733083815774,0)" xlink:href="#bF"/><use transform="matrix(0.07269328187034169,0,0,0.07269328187034169,132.44715956776255,0)" xlink:href="#bE"/><use transform="matrix(0.07269328187034169,0,0,0.07269328187034169,142.6242190296104,0)" xlink:href="#bO"/><use transform="matrix(0.07269328187034169,0,0,0.07269328187034169,149.89354721664458,0)" xlink:href="#bX"/></g><g id="R"><use transform="matrix(0.07269328187034169,0,0,0.07269328187034169,0,0)" xlink:href="#bC"/><use transform="matrix(0.07269328187034169,0,0,0.07269328187034169,20.354118923695673,0)" xlink:href="#bH"/><use transform="matrix(0.07269328187034169,0,0,0.07269328187034169,27.623447110729842,0)" xlink:href="#bD"/><use transform="matrix(0.07269328187034169,0,0,0.07269328187034169,36.2739476533005,0)" xlink:href="#by"/></g><g id="S"><use transform="matrix(0.07269328187034169,0,0,0.07269328187034169,0,0)" xlink:href="#bD"/><use transform="matrix(0.07269328187034169,0,0,0.07269328187034169,8.650500542570661,0)" xlink:href="#by"/><use transform="matrix(0.07269328187034169,0,0,0.07269328187034169,24.570329272175496,0)" xlink:href="#bz"/></g><g id="T"><use transform="matrix(0.07269328187034169,0,0,0.07269328187034169,0,0)" xlink:href="#bX"/><use transform="matrix(0.07269328187034169,0,0,0.07269328187034169,6.178928958979044,0)" xlink:href="#bH"/><use transform="matrix(0.07269328187034169,0,0,0.07269328187034169,13.448257146013212,0)" xlink:href="#bK"/><use transform="matrix(0.07269328187034169,0,0,0.07269328187034169,29.368085875618043,0)" xlink:href="#bY"/><use transform="matrix(0.07269328187034169,0,0,0.07269328187034169,43.90674224968638,0)" xlink:href="#bD"/><use transform="matrix(0.07269328187034169,0,0,0.07269328187034169,52.557242792257036,0)" xlink:href="#bM"/><use transform="matrix(0.07269328187034169,0,0,0.07269328187034169,68.47707152186187,0)" xlink:href="#bB"/><use transform="matrix(0.07269328187034169,0,0,0.07269328187034169,83.01572789593021,0)" xlink:href="#bz"/><use transform="matrix(0.07269328187034169,0,0,0.07269328187034169,97.55438426999854,0)" xlink:href="#bJ"/><use transform="matrix(0.07269328187034169,0,0,0.07269328187034169,113.4742129996034,0)" xlink:href="#bX"/></g><path fill="#666" d="M128 0H69L1-190h53L99-40l48-150h52" id="bZ"/><g id="U"><use transform="matrix(0.07269328187034169,0,0,0.07269328187034169,0,0)" xlink:href="#bZ"/><use transform="matrix(0.07269328187034169,0,0,0.07269328187034169,14.538656374068337,0)" xlink:href="#bI"/><use transform="matrix(0.07269328187034169,0,0,0.07269328187034169,29.077312748136674,0)" xlink:href="#bO"/><use transform="matrix(0.07269328187034169,0,0,0.07269328187034169,36.34664093517084,0)" xlink:href="#bF"/><use transform="matrix(0.07269328187034169,0,0,0.07269328187034169,52.26646966477567,0)" xlink:href="#bz"/></g><path fill="#666" d="M147 0H94L2-248h55l64 206c17-72 42-137 63-206h54" id="ca"/><path fill="#666" d="M123 10C108 53 80 86 19 72V37c35 8 53-11 59-39L3-190h52l48 148c12-52 28-100 44-148h51" id="cb"/><g id="V"><use transform="matrix(0.07269328187034169,0,0,0.07269328187034169,0,0)" xlink:href="#ca"/><use transform="matrix(0.07269328187034169,0,0,0.07269328187034169,15.992522011475174,0)" xlink:href="#bz"/><use transform="matrix(0.07269328187034169,0,0,0.07269328187034169,30.53117838554351,0)" xlink:href="#bE"/><use transform="matrix(0.07269328187034169,0,0,0.07269328187034169,40.708237847391345,0)" xlink:href="#bH"/><use transform="matrix(0.07269328187034169,0,0,0.07269328187034169,47.977566034425514,0)" xlink:href="#bQ"/><use transform="matrix(0.07269328187034169,0,0,0.07269328187034169,56.628066576996176,0)" xlink:href="#cb"/></g><path fill="#666" d="M24 0v-248h52V0H24" id="cc"/><path fill="#666" d="M24-248c120-7 223 5 221 122C244-46 201 0 124 0H24v-248zM76-40c74 7 117-18 117-86 0-67-45-88-117-82v168" id="cd"/><g id="W"><use transform="matrix(0.07269328187034169,0,0,0.07269328187034169,0,0)" xlink:href="#cc"/><use transform="matrix(0.07269328187034169,0,0,0.07269328187034169,7.269328187034168,0)" xlink:href="#cd"/></g><g id="X"><use transform="matrix(0.07269328187034169,0,0,0.07269328187034169,0,0)" xlink:href="#bD"/><use transform="matrix(0.07269328187034169,0,0,0.07269328187034169,8.650500542570661,0)" xlink:href="#bM"/><use transform="matrix(0.07269328187034169,0,0,0.07269328187034169,24.570329272175496,0)" xlink:href="#bB"/><use transform="matrix(0.07269328187034169,0,0,0.07269328187034169,39.10898564624383,0)" xlink:href="#bz"/><use transform="matrix(0.07269328187034169,0,0,0.07269328187034169,53.64764202031217,0)" xlink:href="#bJ"/></g><g id="Y"><use transform="matrix(0.07269328187034169,0,0,0.07269328187034169,0,0)" xlink:href="#bZ"/><use transform="matrix(0.07269328187034169,0,0,0.07269328187034169,14.538656374068337,0)" xlink:href="#bI"/><use transform="matrix(0.07269328187034169,0,0,0.07269328187034169,29.077312748136674,0)" xlink:href="#bO"/><use transform="matrix(0.07269328187034169,0,0,0.07269328187034169,36.34664093517084,0)" xlink:href="#bF"/><use transform="matrix(0.07269328187034169,0,0,0.07269328187034169,52.26646966477567,0)" xlink:href="#bz"/><use transform="matrix(0.07269328187034169,0,0,0.07269328187034169,66.80512603884401,0)" xlink:href="#bU"/></g><g id="Z"><use transform="matrix(0.07269328187034169,0,0,0.07269328187034169,0,0)" xlink:href="#bQ"/><use transform="matrix(0.07269328187034169,0,0,0.07269328187034169,8.650500542570661,0)" xlink:href="#bH"/><use transform="matrix(0.07269328187034169,0,0,0.07269328187034169,15.91982872960483,0)" xlink:href="#bO"/><use transform="matrix(0.07269328187034169,0,0,0.07269328187034169,23.189156916638996,0)" xlink:href="#bO"/></g><g id="aa"><use transform="matrix(0.07269328187034169,0,0,0.07269328187034169,0,0)" xlink:href="#bH"/><use transform="matrix(0.07269328187034169,0,0,0.07269328187034169,7.269328187034168,0)" xlink:href="#bJ"/></g><g id="ab"><use transform="matrix(0.07269328187034169,0,0,0.07269328187034169,0,0)" xlink:href="#bI"/><use transform="matrix(0.07269328187034169,0,0,0.07269328187034169,14.538656374068337,0)" xlink:href="#bF"/><use transform="matrix(0.07269328187034169,0,0,0.07269328187034169,30.458485103673166,0)" xlink:href="#bD"/><use transform="matrix(0.07269328187034169,0,0,0.07269328187034169,39.10898564624383,0)" xlink:href="#by"/><use transform="matrix(0.07269328187034169,0,0,0.07269328187034169,55.028814375848654,0)" xlink:href="#bz"/><use transform="matrix(0.07269328187034169,0,0,0.07269328187034169,69.56747074991699,0)" xlink:href="#bJ"/><use transform="matrix(0.07269328187034169,0,0,0.07269328187034169,85.48729947952182,0)" xlink:href="#bD"/><use transform="matrix(0.07269328187034169,0,0,0.07269328187034169,94.13780002209248,0)" xlink:href="#bH"/><use transform="matrix(0.07269328187034169,0,0,0.07269328187034169,101.40712820912664,0)" xlink:href="#bA"/><use transform="matrix(0.07269328187034169,0,0,0.07269328187034169,115.94578458319498,0)" xlink:href="#bI"/><use transform="matrix(0.07269328187034169,0,0,0.07269328187034169,130.4844409572633,0)" xlink:href="#bD"/><use transform="matrix(0.07269328187034169,0,0,0.07269328187034169,139.13494149983396,0)" xlink:href="#bz"/><use transform="matrix(0.07269328187034169,0,0,0.07269328187034169,153.67359787390228,0)" xlink:href="#bK"/></g><g id="ac"><use transform="matrix(0.07269328187034169,0,0,0.07269328187034169,0,0)" xlink:href="#bF"/><use transform="matrix(0.07269328187034169,0,0,0.07269328187034169,15.919828729604829,0)" xlink:href="#bG"/><use transform="matrix(0.07269328187034169,0,0,0.07269328187034169,30.458485103673166,0)" xlink:href="#bz"/><use transform="matrix(0.07269328187034169,0,0,0.07269328187034169,44.9971414777415,0)" xlink:href="#bE"/></g><path fill="#666" d="M144 0l-44-69L55 0H2l70-98-66-92h53l41 62 40-62h54l-67 91 71 99h-54" id="ce"/><g id="ad"><use transform="matrix(0.07269328187034169,0,0,0.07269328187034169,0,0)" xlink:href="#bA"/><use transform="matrix(0.07269328187034169,0,0,0.07269328187034169,14.538656374068337,0)" xlink:href="#bM"/><use transform="matrix(0.07269328187034169,0,0,0.07269328187034169,30.458485103673166,0)" xlink:href="#bJ"/><use transform="matrix(0.07269328187034169,0,0,0.07269328187034169,46.37831383327799,0)" xlink:href="#bD"/><use transform="matrix(0.07269328187034169,0,0,0.07269328187034169,55.028814375848654,0)" xlink:href="#bz"/><use transform="matrix(0.07269328187034169,0,0,0.07269328187034169,69.56747074991699,0)" xlink:href="#ce"/><use transform="matrix(0.07269328187034169,0,0,0.07269328187034169,84.10612712398533,0)" xlink:href="#bD"/></g><g id="ae"><use transform="matrix(0.07269328187034169,0,0,0.07269328187034169,0,0)" xlink:href="#bF"/><use transform="matrix(0.07269328187034169,0,0,0.07269328187034169,15.919828729604829,0)" xlink:href="#bG"/><use transform="matrix(0.07269328187034169,0,0,0.07269328187034169,30.458485103673166,0)" xlink:href="#bH"/><use transform="matrix(0.07269328187034169,0,0,0.07269328187034169,37.72781329070734,0)" xlink:href="#bJ"/><use transform="matrix(0.07269328187034169,0,0,0.07269328187034169,53.64764202031216,0)" xlink:href="#bP"/></g><g id="af"><use transform="matrix(0.07269328187034169,0,0,0.07269328187034169,0,0)" xlink:href="#cc"/><use transform="matrix(0.07269328187034169,0,0,0.07269328187034169,7.269328187034168,0)" xlink:href="#cd"/></g><g id="ag"><use transform="matrix(0.07269328187034169,0,0,0.07269328187034169,0,0)" xlink:href="#bD"/><use transform="matrix(0.07269328187034169,0,0,0.07269328187034169,8.650500542570661,0)" xlink:href="#bM"/><use transform="matrix(0.07269328187034169,0,0,0.07269328187034169,24.570329272175496,0)" xlink:href="#bB"/><use transform="matrix(0.07269328187034169,0,0,0.07269328187034169,39.10898564624383,0)" xlink:href="#bz"/><use transform="matrix(0.07269328187034169,0,0,0.07269328187034169,53.64764202031217,0)" xlink:href="#bJ"/></g><g id="ah"><use transform="matrix(0.07269328187034169,0,0,0.07269328187034169,0,0)" xlink:href="#bA"/><use transform="matrix(0.07269328187034169,0,0,0.07269328187034169,14.538656374068337,0)" xlink:href="#bO"/><use transform="matrix(0.07269328187034169,0,0,0.07269328187034169,21.807984561102504,0)" xlink:href="#bI"/><use transform="matrix(0.07269328187034169,0,0,0.07269328187034169,36.34664093517084,0)" xlink:href="#bH"/><use transform="matrix(0.07269328187034169,0,0,0.07269328187034169,43.61596912220501,0)" xlink:href="#bR"/><use transform="matrix(0.07269328187034169,0,0,0.07269328187034169,66.87781932071435,0)" xlink:href="#bG"/><use transform="matrix(0.07269328187034169,0,0,0.07269328187034169,81.41647569478269,0)" xlink:href="#bU"/></g><g id="ai"><use transform="matrix(0.07269328187034169,0,0,0.07269328187034169,0,0)" xlink:href="#bG"/><use transform="matrix(0.07269328187034169,0,0,0.07269328187034169,14.538656374068337,0)" xlink:href="#bD"/><use transform="matrix(0.07269328187034169,0,0,0.07269328187034169,23.189156916638996,0)" xlink:href="#bM"/><use transform="matrix(0.07269328187034169,0,0,0.07269328187034169,39.10898564624383,0)" xlink:href="#bE"/><use transform="matrix(0.07269328187034169,0,0,0.07269328187034169,49.28604510809167,0)" xlink:href="#bz"/></g><g id="aj"><use transform="matrix(0.07269328187034169,0,0,0.07269328187034169,0,0)" xlink:href="#bI"/><use transform="matrix(0.07269328187034169,0,0,0.07269328187034169,14.538656374068337,0)" xlink:href="#bA"/><use transform="matrix(0.07269328187034169,0,0,0.07269328187034169,29.077312748136674,0)" xlink:href="#bA"/><use transform="matrix(0.07269328187034169,0,0,0.07269328187034169,43.61596912220501,0)" xlink:href="#bz"/><use transform="matrix(0.07269328187034169,0,0,0.07269328187034169,58.15462549627335,0)" xlink:href="#bG"/><use transform="matrix(0.07269328187034169,0,0,0.07269328187034169,72.69328187034168,0)" xlink:href="#bG"/></g><g id="ak"><use transform="matrix(0.07269328187034169,0,0,0.07269328187034169,0,0)" xlink:href="#bH"/><use transform="matrix(0.07269328187034169,0,0,0.07269328187034169,7.269328187034168,0)" xlink:href="#bQ"/></g><g id="al"><use transform="matrix(0.07269328187034169,0,0,0.07269328187034169,0,0)" xlink:href="#bH"/><use transform="matrix(0.07269328187034169,0,0,0.07269328187034169,7.269328187034168,0)" xlink:href="#bD"/></g><g id="am"><use transform="matrix(0.07269328187034169,0,0,0.07269328187034169,0,0)" xlink:href="#bC"/><use transform="matrix(0.07269328187034169,0,0,0.07269328187034169,20.354118923695673,0)" xlink:href="#bI"/><use transform="matrix(0.07269328187034169,0,0,0.07269328187034169,34.89277529776401,0)" xlink:href="#bG"/></g><path fill="#666" d="M84 4C32 4 15-41 15-95c0-55 18-99 73-99 29 0 47 12 58 34l2-30h48l-1 265h-49V-32C136-9 114 4 84 4zm21-34c32 0 41-29 41-66 0-36-9-64-40-64-33 0-39 30-40 65 0 43 13 65 39 65" id="cf"/><g id="an"><use transform="matrix(0.07269328187034169,0,0,0.07269328187034169,0,0)" xlink:href="#bE"/><use transform="matrix(0.07269328187034169,0,0,0.07269328187034169,10.177059461847836,0)" xlink:href="#bz"/><use transform="matrix(0.07269328187034169,0,0,0.07269328187034169,24.715715835916175,0)" xlink:href="#cf"/><use transform="matrix(0.07269328187034169,0,0,0.07269328187034169,40.635544565521,0)" xlink:href="#bF"/><use transform="matrix(0.07269328187034169,0,0,0.07269328187034169,56.55537329512583,0)" xlink:href="#bz"/><use transform="matrix(0.07269328187034169,0,0,0.07269328187034169,71.09402966919417,0)" xlink:href="#bG"/><use transform="matrix(0.07269328187034169,0,0,0.07269328187034169,85.63268604326251,0)" xlink:href="#bE"/><use transform="matrix(0.07269328187034169,0,0,0.07269328187034169,95.80974550511034,0)" xlink:href="#bz"/><use transform="matrix(0.07269328187034169,0,0,0.07269328187034169,110.34840187917868,0)" xlink:href="#bK"/></g><g id="ao"><use transform="matrix(0.07269328187034169,0,0,0.07269328187034169,0,0)" xlink:href="#bW"/><use transform="matrix(0.07269328187034169,0,0,0.07269328187034169,18.827560004418498,0)" xlink:href="#bz"/><use transform="matrix(0.07269328187034169,0,0,0.07269328187034169,33.36621637848683,0)" xlink:href="#cf"/><use transform="matrix(0.07269328187034169,0,0,0.07269328187034169,49.28604510809166,0)" xlink:href="#bF"/><use transform="matrix(0.07269328187034169,0,0,0.07269328187034169,65.20587383769649,0)" xlink:href="#bz"/><use transform="matrix(0.07269328187034169,0,0,0.07269328187034169,79.74453021176483,0)" xlink:href="#bG"/><use transform="matrix(0.07269328187034169,0,0,0.07269328187034169,94.28318658583316,0)" xlink:href="#bD"/></g><path fill="#666" d="M183 0l-10-63H79L44 0H-7l138-248h61L234 0h-51zm-14-102l-15-108c-16 38-36 73-55 108h70" id="cg"/><path fill="#666" d="M69 3c-96 0-34-126-28-193h49L65-57c6 42 62 18 71-6 14-38 17-86 28-127h50L178 0h-47c0-11 4-26 3-33-14 20-30 37-65 36" id="ch"/><path fill="#666" d="M72-63c-8 23 5 39 32 30L98-1C54 14 12-6 23-64l18-93H15l7-33h28l24-45h31l-8 45h35l-6 33H90" id="ci"/><path fill="#666" d="M150-105c8-23 8-54-22-51-68 7-54 98-72 156H6l50-261h50L85-158c15-20 33-36 66-36 95 0 34 128 28 194h-49" id="cj"/><path fill="#666" d="M124-194c51 0 84 22 84 74C207-44 167 4 94 4 43 4 11-23 11-74c0-74 41-120 113-120zM99-30c46 0 58-42 58-86 0-27-11-44-37-44-44 0-55 40-57 84-1 27 10 45 36 46" id="ck"/><path fill="#666" d="M84-151c13-25 34-51 72-40l-8 41C67-170 71-64 56 0H6l36-190h47" id="cl"/><path fill="#666" d="M50-224l7-37h49l-7 37H50zM6 0l37-190h49L55 0H6" id="cm"/><path fill="#666" d="M-6 0l7-35 114-120H31l7-35h142l-7 35L59-36h100l-7 36H-6" id="cn"/><path fill="#666" d="M166-52c-4 17 5 29 24 23l-3 27c-30 11-74 1-67-34C105-15 91 4 56 4 23 4 3-15 2-49c0-64 63-67 128-67 10-22 3-53-29-45-13 3-22 10-25 24l-46-5c5-64 156-77 153 0-1 33-11 60-17 90zM97-88c-44-9-64 57-19 57 31 0 42-28 47-57H97" id="co"/><path fill="#666" d="M151-194c95 0 34 128 28 194h-49l25-134c0-29-45-25-59-9C67-111 69-48 56 0H6l36-190h47l-4 32c15-20 33-36 66-36" id="cp"/><g id="ap"><use transform="matrix(0.07407407407407408,0,0,0.07407407407407408,0,0)" xlink:href="#cg"/><use transform="matrix(0.07407407407407408,0,0,0.07407407407407408,19.185185185185187,0)" xlink:href="#ch"/><use transform="matrix(0.07407407407407408,0,0,0.07407407407407408,35.40740740740741,0)" xlink:href="#ci"/><use transform="matrix(0.07407407407407408,0,0,0.07407407407407408,44.22222222222223,0)" xlink:href="#cj"/><use transform="matrix(0.07407407407407408,0,0,0.07407407407407408,60.444444444444464,0)" xlink:href="#ck"/><use transform="matrix(0.07407407407407408,0,0,0.07407407407407408,76.6666666666667,0)" xlink:href="#cl"/><use transform="matrix(0.07407407407407408,0,0,0.07407407407407408,87.03703703703705,0)" xlink:href="#cm"/><use transform="matrix(0.07407407407407408,0,0,0.07407407407407408,94.44444444444446,0)" xlink:href="#cn"/><use transform="matrix(0.07407407407407408,0,0,0.07407407407407408,107.77777777777779,0)" xlink:href="#co"/><use transform="matrix(0.07407407407407408,0,0,0.07407407407407408,122.59259259259261,0)" xlink:href="#ci"/><use transform="matrix(0.07407407407407408,0,0,0.07407407407407408,131.40740740740742,0)" xlink:href="#cm"/><use transform="matrix(0.07407407407407408,0,0,0.07407407407407408,138.81481481481484,0)" xlink:href="#ck"/><use transform="matrix(0.07407407407407408,0,0,0.07407407407407408,155.03703703703707,0)" xlink:href="#cp"/></g><path fill="#666" d="M114-194c63-2 87 48 72 110H63c-3 28 1 55 31 54 21-1 32-13 37-29l44 13C160-14 137 4 91 4 41 4 11-22 11-73c0-71 33-119 103-121zm30 77c14-47-50-61-67-22-3 6-6 13-8 22h75" id="cq"/><path fill="#666" d="M132-28C118-9 101 4 69 4 30 4 10-23 10-62c0-70 24-129 92-132 31-1 47 14 56 35l19-102h49L179 0h-49zM62-69c0 22 7 39 29 39 45-2 54-45 57-90 2-27-10-40-33-40-44 0-53 48-53 91" id="cr"/><g id="aq"><use transform="matrix(0.07407407407407408,0,0,0.07407407407407408,0,0)" xlink:href="#cq"/><use transform="matrix(0.07407407407407408,0,0,0.07407407407407408,14.814814814814817,0)" xlink:href="#cp"/><use transform="matrix(0.07407407407407408,0,0,0.07407407407407408,31.03703703703704,0)" xlink:href="#cr"/></g><path fill="#666" d="M156-122c2-23-7-37-28-37-47 0-58 44-58 89 0 24 12 40 36 40 43 0 47-49 50-92zM-8 75l50-265h48c0 10-3 24-3 30 22-50 127-45 121 29-6 73-21 135-92 135-29 0-46-14-55-35L41 75H-8" id="cs"/><path fill="#666" d="M35-132v-50h50v50H35zM35 0v-49h50V0H35" id="ct"/><g id="ar"><use transform="matrix(0.07407407407407408,0,0,0.07407407407407408,0,0)" xlink:href="#cs"/><use transform="matrix(0.07407407407407408,0,0,0.07407407407407408,16.222222222222225,0)" xlink:href="#ck"/><use transform="matrix(0.07407407407407408,0,0,0.07407407407407408,32.44444444444445,0)" xlink:href="#cm"/><use transform="matrix(0.07407407407407408,0,0,0.07407407407407408,39.85185185185187,0)" xlink:href="#cp"/><use transform="matrix(0.07407407407407408,0,0,0.07407407407407408,56.07407407407409,0)" xlink:href="#ci"/><use transform="matrix(0.07269328187034169,0,0,0.07269328187034169,64.88888888888891,0)" xlink:href="#ct"/></g><path fill="#666" d="M4 7l51-268h42L46 7H4" id="cu"/><path fill="#666" d="M24 0v-54h51V0H24" id="cv"/><path fill="#666" d="M14-72v-43h91v43H14" id="cw"/><g id="as"><use transform="matrix(0.07269328187034169,0,0,0.07269328187034169,0,0)" xlink:href="#by"/><use transform="matrix(0.07269328187034169,0,0,0.07269328187034169,15.919828729604829,0)" xlink:href="#bD"/><use transform="matrix(0.07269328187034169,0,0,0.07269328187034169,24.570329272175496,0)" xlink:href="#bD"/><use transform="matrix(0.07269328187034169,0,0,0.07269328187034169,33.22082981474615,0)" xlink:href="#bS"/><use transform="matrix(0.07269328187034169,0,0,0.07269328187034169,49.14065854435099,0)" xlink:href="#bG"/><use transform="matrix(0.07269328187034169,0,0,0.07269328187034169,63.67931491841932,0)" xlink:href="#ct"/><use transform="matrix(0.07269328187034169,0,0,0.07269328187034169,72.32981546098998,0)" xlink:href="#cu"/><use transform="matrix(0.07269328187034169,0,0,0.07269328187034169,79.59914364802415,0)" xlink:href="#cu"/><use transform="matrix(0.07269328187034169,0,0,0.07269328187034169,86.8684718350583,0)" xlink:href="#bM"/><use transform="matrix(0.07269328187034169,0,0,0.07269328187034169,102.78830056466313,0)" xlink:href="#bS"/><use transform="matrix(0.07269328187034169,0,0,0.07269328187034169,118.70812929426796,0)" xlink:href="#cv"/><use transform="matrix(0.07269328187034169,0,0,0.07269328187034169,125.97745748130212,0)" xlink:href="#bR"/><use transform="matrix(0.07269328187034169,0,0,0.07269328187034169,149.23930767981147,0)" xlink:href="#cb"/><use transform="matrix(0.07269328187034169,0,0,0.07269328187034169,163.7779640538798,0)" xlink:href="#cw"/><use transform="matrix(0.07269328187034169,0,0,0.07269328187034169,172.42846459645045,0)" xlink:href="#bM"/><use transform="matrix(0.07269328187034169,0,0,0.07269328187034169,188.34829332605528,0)" xlink:href="#bE"/><use transform="matrix(0.07269328187034169,0,0,0.07269328187034169,198.52535278790313,0)" xlink:href="#bP"/><use transform="matrix(0.07269328187034169,0,0,0.07269328187034169,214.44518151750796,0)" xlink:href="#bI"/><use transform="matrix(0.07269328187034169,0,0,0.07269328187034169,228.9838378915763,0)" xlink:href="#bJ"/><use transform="matrix(0.07269328187034169,0,0,0.07269328187034169,244.90366662118112,0)" xlink:href="#bH"/><use transform="matrix(0.07269328187034169,0,0,0.07269328187034169,252.17299480821532,0)" xlink:href="#bV"/><use transform="matrix(0.07269328187034169,0,0,0.07269328187034169,265.2577855448768,0)" xlink:href="#bI"/><use transform="matrix(0.07269328187034169,0,0,0.07269328187034169,279.79644191894516,0)" xlink:href="#bD"/><use transform="matrix(0.07269328187034169,0,0,0.07269328187034169,288.44694246151585,0)" xlink:href="#bH"/><use transform="matrix(0.07269328187034169,0,0,0.07269328187034169,295.71627064855,0)" xlink:href="#bM"/><use transform="matrix(0.07269328187034169,0,0,0.07269328187034169,311.6360993781548,0)" xlink:href="#bJ"/><use transform="matrix(0.07269328187034169,0,0,0.07269328187034169,327.55592810775966,0)" xlink:href="#cv"/><use transform="matrix(0.07269328187034169,0,0,0.07269328187034169,334.8252562947938,0)" xlink:href="#bA"/><use transform="matrix(0.07269328187034169,0,0,0.07269328187034169,349.36391266886216,0)" xlink:href="#bM"/><use transform="matrix(0.07269328187034169,0,0,0.07269328187034169,365.283741398467,0)" xlink:href="#bR"/><use transform="matrix(0.07269328187034169,0,0,0.07269328187034169,388.54559159697635,0)" xlink:href="#cu"/><use transform="matrix(0.07269328187034169,0,0,0.07269328187034169,395.8149197840105,0)" xlink:href="#bI"/><use transform="matrix(0.07269328187034169,0,0,0.07269328187034169,410.3535761580789,0)" xlink:href="#bF"/><use transform="matrix(0.07269328187034169,0,0,0.07269328187034169,426.27340488768374,0)" xlink:href="#bD"/><use transform="matrix(0.07269328187034169,0,0,0.07269328187034169,434.92390543025437,0)" xlink:href="#by"/><use transform="matrix(0.07269328187034169,0,0,0.07269328187034169,450.8437341598592,0)" xlink:href="#bM"/><use transform="matrix(0.07269328187034169,0,0,0.07269328187034169,466.763562889464,0)" xlink:href="#bE"/><use transform="matrix(0.07269328187034169,0,0,0.07269328187034169,476.94062235131184,0)" xlink:href="#bH"/><use transform="matrix(0.07269328187034169,0,0,0.07269328187034169,484.209950538346,0)" xlink:href="#bV"/><use transform="matrix(0.07269328187034169,0,0,0.07269328187034169,497.2947412750075,0)" xlink:href="#bz"/></g><path fill="#666" d="M110-251c83-7 118 89 53 130-17 10-36 21-38 46H78c2-56 65-53 71-103 2-21-15-35-38-34-25 1-41 14-44 38l-50-2c6-48 39-70 93-75zM77 0v-47h51V0H77" id="cx"/><path fill="#666" d="M15-148v-39h180v39H15zm0 97v-39h180v39H15" id="cy"/><g id="au"><use transform="matrix(0.07269328187034169,0,0,0.07269328187034169,0,0)" xlink:href="#cx"/><use transform="matrix(0.07269328187034169,0,0,0.07269328187034169,15.919828729604829,0)" xlink:href="#bE"/><use transform="matrix(0.07269328187034169,0,0,0.07269328187034169,26.096888191452667,0)" xlink:href="#bz"/><use transform="matrix(0.07269328187034169,0,0,0.07269328187034169,40.635544565521,0)" xlink:href="#bG"/><use transform="matrix(0.07269328187034169,0,0,0.07269328187034169,55.17420093958934,0)" xlink:href="#bS"/><use transform="matrix(0.07269328187034169,0,0,0.07269328187034169,71.09402966919417,0)" xlink:href="#bM"/><use transform="matrix(0.07269328187034169,0,0,0.07269328187034169,87.013858398799,0)" xlink:href="#bJ"/><use transform="matrix(0.07269328187034169,0,0,0.07269328187034169,102.93368712840383,0)" xlink:href="#bG"/><use transform="matrix(0.07269328187034169,0,0,0.07269328187034169,117.47234350247217,0)" xlink:href="#bz"/><use transform="matrix(0.07269328187034169,0,0,0.07269328187034169,132.0109998765405,0)" xlink:href="#bY"/><use transform="matrix(0.07269328187034169,0,0,0.07269328187034169,146.54965625060882,0)" xlink:href="#bD"/><use transform="matrix(0.07269328187034169,0,0,0.07269328187034169,155.20015679317947,0)" xlink:href="#cb"/><use transform="matrix(0.07269328187034169,0,0,0.07269328187034169,169.7388131672478,0)" xlink:href="#bS"/><use transform="matrix(0.07269328187034169,0,0,0.07269328187034169,185.65864189685263,0)" xlink:href="#bz"/><use transform="matrix(0.07269328187034169,0,0,0.07269328187034169,200.19729827092092,0)" xlink:href="#cy"/><use transform="matrix(0.07269328187034169,0,0,0.07269328187034169,215.46288746369274,0)" xlink:href="#bH"/><use transform="matrix(0.07269328187034169,0,0,0.07269328187034169,222.73221565072689,0)" xlink:href="#bK"/><use transform="matrix(0.07269328187034169,0,0,0.07269328187034169,238.65204438033172,0)" xlink:href="#bY"/><use transform="matrix(0.07269328187034169,0,0,0.07269328187034169,253.1907007544,0)" xlink:href="#bD"/><use transform="matrix(0.07269328187034169,0,0,0.07269328187034169,261.8412012969707,0)" xlink:href="#bM"/><use transform="matrix(0.07269328187034169,0,0,0.07269328187034169,277.76103002657555,0)" xlink:href="#bB"/><use transform="matrix(0.07269328187034169,0,0,0.07269328187034169,292.2996864006439,0)" xlink:href="#bz"/><use transform="matrix(0.07269328187034169,0,0,0.07269328187034169,306.83834277471226,0)" xlink:href="#bJ"/><use transform="matrix(0.07269328187034169,0,0,0.07269328187034169,322.7581715043171,0)" xlink:href="#cv"/><use transform="matrix(0.07269328187034169,0,0,0.07269328187034169,330.02749969135124,0)" xlink:href="#cv"/><use transform="matrix(0.07269328187034169,0,0,0.07269328187034169,337.29682787838533,0)" xlink:href="#cv"/></g><g id="av"><use transform="matrix(0.07269328187034169,0,0,0.07269328187034169,0,0)" xlink:href="#bC"/><use transform="matrix(0.07269328187034169,0,0,0.07269328187034169,20.354118923695673,0)" xlink:href="#bz"/><use transform="matrix(0.07269328187034169,0,0,0.07269328187034169,34.89277529776401,0)" xlink:href="#bD"/><use transform="matrix(0.07269328187034169,0,0,0.07269328187034169,43.54327584033467,0)" xlink:href="#by"/><use transform="matrix(0.07269328187034169,0,0,0.07269328187034169,59.463104569939496,0)" xlink:href="#bz"/><use transform="matrix(0.07269328187034169,0,0,0.07269328187034169,74.00176094400784,0)" xlink:href="#bE"/></g><g id="aw"><use transform="matrix(0.07269328187034169,0,0,0.07269328187034169,0,0)" xlink:href="#bD"/><use transform="matrix(0.07269328187034169,0,0,0.07269328187034169,8.650500542570661,0)" xlink:href="#by"/><use transform="matrix(0.07269328187034169,0,0,0.07269328187034169,24.570329272175496,0)" xlink:href="#bz"/></g><g id="ax"><use transform="matrix(0.07269328187034169,0,0,0.07269328187034169,0,0)" xlink:href="#bF"/><use transform="matrix(0.07269328187034169,0,0,0.07269328187034169,15.919828729604829,0)" xlink:href="#bG"/><use transform="matrix(0.07269328187034169,0,0,0.07269328187034169,30.458485103673166,0)" xlink:href="#bz"/><use transform="matrix(0.07269328187034169,0,0,0.07269328187034169,44.9971414777415,0)" xlink:href="#bE"/></g><g id="ay"><use transform="matrix(0.07269328187034169,0,0,0.07269328187034169,0,0)" xlink:href="#bH"/><use transform="matrix(0.07269328187034169,0,0,0.07269328187034169,7.269328187034168,0)" xlink:href="#bG"/></g><g id="az"><use transform="matrix(0.07269328187034169,0,0,0.07269328187034169,0,0)" xlink:href="#bI"/><use transform="matrix(0.07269328187034169,0,0,0.07269328187034169,14.538656374068337,0)" xlink:href="#bF"/><use transform="matrix(0.07269328187034169,0,0,0.07269328187034169,30.458485103673166,0)" xlink:href="#bD"/><use transform="matrix(0.07269328187034169,0,0,0.07269328187034169,39.10898564624383,0)" xlink:href="#by"/><use transform="matrix(0.07269328187034169,0,0,0.07269328187034169,55.028814375848654,0)" xlink:href="#bz"/><use transform="matrix(0.07269328187034169,0,0,0.07269328187034169,69.56747074991699,0)" xlink:href="#bJ"/><use transform="matrix(0.07269328187034169,0,0,0.07269328187034169,85.48729947952182,0)" xlink:href="#bD"/><use transform="matrix(0.07269328187034169,0,0,0.07269328187034169,94.13780002209248,0)" xlink:href="#bH"/><use transform="matrix(0.07269328187034169,0,0,0.07269328187034169,101.40712820912664,0)" xlink:href="#bA"/><use transform="matrix(0.07269328187034169,0,0,0.07269328187034169,115.94578458319498,0)" xlink:href="#bI"/><use transform="matrix(0.07269328187034169,0,0,0.07269328187034169,130.4844409572633,0)" xlink:href="#bD"/><use transform="matrix(0.07269328187034169,0,0,0.07269328187034169,139.13494149983396,0)" xlink:href="#bz"/><use transform="matrix(0.07269328187034169,0,0,0.07269328187034169,153.67359787390228,0)" xlink:href="#bK"/><use transform="matrix(0.07269328187034169,0,0,0.07269328187034169,169.5934266035071,0)" xlink:href="#bU"/></g><g id="aA"><use transform="matrix(0.07269328187034169,0,0,0.07269328187034169,0,0)" xlink:href="#bA"/><use transform="matrix(0.07269328187034169,0,0,0.07269328187034169,14.538656374068337,0)" xlink:href="#bE"/><use transform="matrix(0.07269328187034169,0,0,0.07269328187034169,24.715715835916175,0)" xlink:href="#bI"/><use transform="matrix(0.07269328187034169,0,0,0.07269328187034169,39.25437220998451,0)" xlink:href="#bQ"/><use transform="matrix(0.07269328187034169,0,0,0.07269328187034169,47.90487275255517,0)" xlink:href="#bD"/></g><g id="aB"><use transform="matrix(0.07269328187034169,0,0,0.07269328187034169,0,0)" xlink:href="#bI"/><use transform="matrix(0.07269328187034169,0,0,0.07269328187034169,14.538656374068337,0)" xlink:href="#bF"/><use transform="matrix(0.07269328187034169,0,0,0.07269328187034169,30.458485103673166,0)" xlink:href="#bD"/><use transform="matrix(0.07269328187034169,0,0,0.07269328187034169,39.10898564624383,0)" xlink:href="#by"/><use transform="matrix(0.07269328187034169,0,0,0.07269328187034169,55.028814375848654,0)" xlink:href="#bz"/><use transform="matrix(0.07269328187034169,0,0,0.07269328187034169,69.56747074991699,0)" xlink:href="#bJ"/><use transform="matrix(0.07269328187034169,0,0,0.07269328187034169,85.48729947952182,0)" xlink:href="#bD"/><use transform="matrix(0.07269328187034169,0,0,0.07269328187034169,94.13780002209248,0)" xlink:href="#bH"/><use transform="matrix(0.07269328187034169,0,0,0.07269328187034169,101.40712820912664,0)" xlink:href="#bA"/><use transform="matrix(0.07269328187034169,0,0,0.07269328187034169,115.94578458319498,0)" xlink:href="#bI"/><use transform="matrix(0.07269328187034169,0,0,0.07269328187034169,130.4844409572633,0)" xlink:href="#bD"/><use transform="matrix(0.07269328187034169,0,0,0.07269328187034169,139.13494149983396,0)" xlink:href="#bH"/><use transform="matrix(0.07269328187034169,0,0,0.07269328187034169,146.40426968686813,0)" xlink:href="#bM"/><use transform="matrix(0.07269328187034169,0,0,0.07269328187034169,162.32409841647296,0)" xlink:href="#bJ"/></g><g id="aC"><use transform="matrix(0.07269328187034169,0,0,0.07269328187034169,0,0)" xlink:href="#bE"/><use transform="matrix(0.07269328187034169,0,0,0.07269328187034169,10.177059461847836,0)" xlink:href="#bz"/><use transform="matrix(0.07269328187034169,0,0,0.07269328187034169,24.715715835916175,0)" xlink:href="#cf"/><use transform="matrix(0.07269328187034169,0,0,0.07269328187034169,40.635544565521,0)" xlink:href="#bF"/><use transform="matrix(0.07269328187034169,0,0,0.07269328187034169,56.55537329512583,0)" xlink:href="#bz"/><use transform="matrix(0.07269328187034169,0,0,0.07269328187034169,71.09402966919417,0)" xlink:href="#bG"/><use transform="matrix(0.07269328187034169,0,0,0.07269328187034169,85.63268604326251,0)" xlink:href="#bD"/></g><path d="M232-93c-1 65-40 97-104 97C67 4 28-28 28-90v-158h33c8 89-33 224 67 224 102 0 64-133 71-224h33v155" id="cz"/><path d="M135-143c-3-34-86-38-87 0 15 53 115 12 119 90S17 21 10-45l28-5c4 36 97 45 98 0-10-56-113-15-118-90-4-57 82-63 122-42 12 7 21 19 24 35" id="cA"/><path d="M100-194c63 0 86 42 84 106H49c0 40 14 67 53 68 26 1 43-12 49-29l28 8c-11 28-37 45-77 45C44 4 14-33 15-96c1-61 26-98 85-98zm52 81c6-60-76-77-97-28-3 7-6 17-6 28h103" id="cB"/><path d="M114-163C36-179 61-72 57 0H25l-1-190h30c1 12-1 29 2 39 6-27 23-49 58-41v29" id="cC"/><g id="aD"><use transform="matrix(0.05,0,0,0.05,0,0)" xlink:href="#cz"/><use transform="matrix(0.05,0,0,0.05,12.950000000000001,0)" xlink:href="#cA"/><use transform="matrix(0.05,0,0,0.05,21.950000000000003,0)" xlink:href="#cB"/><use transform="matrix(0.05,0,0,0.05,31.950000000000003,0)" xlink:href="#cC"/></g><g id="aE"><use transform="matrix(0.07269328187034169,0,0,0.07269328187034169,0,0)" xlink:href="#bW"/><use transform="matrix(0.07269328187034169,0,0,0.07269328187034169,18.827560004418498,0)" xlink:href="#bz"/><use transform="matrix(0.07269328187034169,0,0,0.07269328187034169,33.36621637848683,0)" xlink:href="#bK"/><use transform="matrix(0.07269328187034169,0,0,0.07269328187034169,49.28604510809166,0)" xlink:href="#bH"/><use transform="matrix(0.07269328187034169,0,0,0.07269328187034169,56.55537329512583,0)" xlink:href="#bE"/><use transform="matrix(0.07269328187034169,0,0,0.07269328187034169,66.73243275697367,0)" xlink:href="#bz"/><use transform="matrix(0.07269328187034169,0,0,0.07269328187034169,81.271089131042,0)" xlink:href="#bA"/><use transform="matrix(0.07269328187034169,0,0,0.07269328187034169,95.80974550511034,0)" xlink:href="#bD"/></g><g id="aF"><use transform="matrix(0.07269328187034169,0,0,0.07269328187034169,0,0)" xlink:href="#bD"/><use transform="matrix(0.07269328187034169,0,0,0.07269328187034169,8.650500542570661,0)" xlink:href="#by"/><use transform="matrix(0.07269328187034169,0,0,0.07269328187034169,24.570329272175496,0)" xlink:href="#bz"/></g><g id="aG"><use transform="matrix(0.07269328187034169,0,0,0.07269328187034169,0,0)" xlink:href="#bD"/><use transform="matrix(0.07269328187034169,0,0,0.07269328187034169,8.650500542570661,0)" xlink:href="#bM"/></g><g id="aH"><use transform="matrix(0.07269328187034169,0,0,0.07269328187034169,0,0)" xlink:href="#bI"/><use transform="matrix(0.07269328187034169,0,0,0.07269328187034169,14.538656374068337,0)" xlink:href="#bF"/><use transform="matrix(0.07269328187034169,0,0,0.07269328187034169,30.458485103673166,0)" xlink:href="#bD"/><use transform="matrix(0.07269328187034169,0,0,0.07269328187034169,39.10898564624383,0)" xlink:href="#by"/><use transform="matrix(0.07269328187034169,0,0,0.07269328187034169,55.028814375848654,0)" xlink:href="#bz"/><use transform="matrix(0.07269328187034169,0,0,0.07269328187034169,69.56747074991699,0)" xlink:href="#bJ"/><use transform="matrix(0.07269328187034169,0,0,0.07269328187034169,85.48729947952182,0)" xlink:href="#bD"/><use transform="matrix(0.07269328187034169,0,0,0.07269328187034169,94.13780002209248,0)" xlink:href="#bH"/><use transform="matrix(0.07269328187034169,0,0,0.07269328187034169,101.40712820912664,0)" xlink:href="#bA"/><use transform="matrix(0.07269328187034169,0,0,0.07269328187034169,115.94578458319498,0)" xlink:href="#bI"/><use transform="matrix(0.07269328187034169,0,0,0.07269328187034169,130.4844409572633,0)" xlink:href="#bD"/><use transform="matrix(0.07269328187034169,0,0,0.07269328187034169,139.13494149983396,0)" xlink:href="#bz"/><use transform="matrix(0.07269328187034169,0,0,0.07269328187034169,153.67359787390228,0)" xlink:href="#bK"/></g><g id="aI"><use transform="matrix(0.07269328187034169,0,0,0.07269328187034169,0,0)" xlink:href="#bS"/><use transform="matrix(0.07269328187034169,0,0,0.07269328187034169,15.919828729604829,0)" xlink:href="#bI"/><use transform="matrix(0.07269328187034169,0,0,0.07269328187034169,30.458485103673166,0)" xlink:href="#bP"/><use transform="matrix(0.07269328187034169,0,0,0.07269328187034169,46.37831383327799,0)" xlink:href="#bz"/></g></defs></g></svg>